<svg width="50" height="50" viewBox="0 0 50 50" fill="none" xmlns="http://www.w3.org/2000/svg">
<g clip-path="url(#clip0_463_1895)">
<path d="M45.8331 5.00434H41.6661V3.33622C41.6661 2.4514 41.3146 1.60282 40.689 0.977158C40.0633 0.351494 39.2147 0 38.3299 0C37.4451 0 36.5965 0.351494 35.9708 0.977158C35.3452 1.60282 34.9937 2.4514 34.9937 3.33622V5.00434H28.3212V3.33622C28.3212 2.4514 27.9697 1.60282 27.3441 0.977158C26.7184 0.351494 25.8698 0 24.985 0C24.1002 0 23.2516 0.351494 22.6259 0.977158C22.0003 1.60282 21.6488 2.4514 21.6488 3.33622V5.00434H15.013V3.33622C15.013 2.4514 14.6615 1.60282 14.0359 0.977158C13.4102 0.351494 12.5616 0 11.6768 0C10.792 0 9.94338 0.351494 9.31772 0.977158C8.69206 1.60282 8.34056 2.4514 8.34056 3.33622V5.00434H4.16694C3.06238 5.00434 2.00301 5.44289 1.22165 6.22363C0.440291 7.00436 0.000884359 8.06338 0 9.16795L0 42.5002C0 43.6053 0.439016 44.6652 1.22047 45.4466C2.00192 46.2281 3.0618 46.6671 4.16694 46.6671H27.5005C27.7217 46.6671 27.9339 46.5792 28.0903 46.4228C28.2467 46.2664 28.3346 46.0543 28.3346 45.8331C28.3346 45.6119 28.2467 45.3997 28.0903 45.2433C27.9339 45.0869 27.7217 44.999 27.5005 44.999H4.16694C3.50502 44.9964 2.87097 44.7323 2.40292 44.2642C1.93486 43.7961 1.67075 43.1621 1.66811 42.5002V16.6811H48.3352V30.8334C48.3352 31.0546 48.4231 31.2667 48.5795 31.4232C48.7359 31.5796 48.9481 31.6674 49.1693 31.6674C49.3905 31.6674 49.6026 31.5796 49.759 31.4232C49.9155 31.2667 50.0033 31.0546 50.0033 30.8334V9.16795C50.0029 8.62074 49.8947 8.07897 49.6849 7.57358C49.4751 7.06819 49.1678 6.60908 48.7805 6.22245C48.3933 5.83582 47.9337 5.52925 47.4279 5.32025C46.9222 5.11125 46.3803 5.0039 45.8331 5.00434ZM36.6684 3.33622C36.6684 2.89381 36.8442 2.46952 37.157 2.15669C37.4699 1.84386 37.8941 1.66811 38.3366 1.66811C38.779 1.66811 39.2033 1.84386 39.5161 2.15669C39.8289 2.46952 40.0047 2.89381 40.0047 3.33622V8.34056C40.0047 8.78297 39.8289 9.20726 39.5161 9.5201C39.2033 9.83293 38.779 10.0087 38.3366 10.0087C37.8941 10.0087 37.4699 9.83293 37.157 9.5201C36.8442 9.20726 36.6684 8.78297 36.6684 8.34056V3.33622ZM23.3235 3.33622C23.3235 2.89381 23.4993 2.46952 23.8121 2.15669C24.125 1.84386 24.5493 1.66811 24.9917 1.66811C25.4341 1.66811 25.8584 1.84386 26.1712 2.15669C26.484 2.46952 26.6598 2.89381 26.6598 3.33622V8.34056C26.6598 8.78297 26.484 9.20726 26.1712 9.5201C25.8584 9.83293 25.4341 10.0087 24.9917 10.0087C24.5493 10.0087 24.125 9.83293 23.8121 9.5201C23.4993 9.20726 23.3235 8.78297 23.3235 8.34056V3.33622ZM10.0087 3.33622C10.0087 2.89381 10.1844 2.46952 10.4973 2.15669C10.8101 1.84386 11.2344 1.66811 11.6768 1.66811C12.1192 1.66811 12.5435 1.84386 12.8563 2.15669C13.1692 2.46952 13.3449 2.89381 13.3449 3.33622V8.34056C13.3449 8.78297 13.1692 9.20726 12.8563 9.5201C12.5435 9.83293 12.1192 10.0087 11.6768 10.0087C11.2344 10.0087 10.8101 9.83293 10.4973 9.5201C10.1844 9.20726 10.0087 8.78297 10.0087 8.34056V3.33622ZM48.3352 15.013H1.66811V9.16795C1.67163 8.50661 1.93613 7.8734 2.40408 7.40607C2.87204 6.93874 3.5056 6.67508 4.16694 6.67245H8.34056V8.34056C8.34056 9.22538 8.69206 10.074 9.31772 10.6996C9.94338 11.3253 10.792 11.6768 11.6768 11.6768C12.5616 11.6768 13.4102 11.3253 14.0359 10.6996C14.6615 10.074 15.013 9.22538 15.013 8.34056V6.67245H21.6855V8.34056C21.6855 9.22538 22.037 10.074 22.6626 10.6996C23.2883 11.3253 24.1369 11.6768 25.0217 11.6768C25.9065 11.6768 26.7551 11.3253 27.3808 10.6996C28.0064 10.074 28.3579 9.22538 28.3579 8.34056V6.67245H35.0304V8.34056C35.0304 9.22538 35.3819 10.074 36.0075 10.6996C36.6332 11.3253 37.4818 11.6768 38.3666 11.6768C39.2514 11.6768 40.1 11.3253 40.7257 10.6996C41.3513 10.074 41.7028 9.22538 41.7028 8.34056V6.67245H45.8698C46.5326 6.67509 47.1675 6.93955 47.6361 7.40823C48.1048 7.87691 48.3693 8.51181 48.3719 9.17462L48.3352 15.013Z" fill="#4B99F1"/>
<path d="M23.3336 22.4997C23.3336 22.0572 23.1578 21.633 22.845 21.3201C22.5322 21.0073 22.1079 20.8315 21.6655 20.8315H18.3493C17.9069 20.8315 17.4826 21.0073 17.1697 21.3201C16.8569 21.633 16.6812 22.0572 16.6812 22.4997V25.0018C16.6812 25.4442 16.8569 25.8685 17.1697 26.1814C17.4826 26.4942 17.9069 26.6699 18.3493 26.6699H21.6855C22.1279 26.6699 22.5522 26.4942 22.865 26.1814C23.1779 25.8685 23.3536 25.4442 23.3536 25.0018L23.3336 22.4997ZM18.3292 25.0018V22.4997H21.6655V25.0018H18.3292Z" fill="#4B99F1"/>
<path d="M13.3448 22.4997C13.3448 22.0572 13.1691 21.633 12.8562 21.3201C12.5434 21.0073 12.1191 20.8315 11.6767 20.8315H8.34048C7.89806 20.8315 7.47377 21.0073 7.16094 21.3201C6.84811 21.633 6.67236 22.0572 6.67236 22.4997V25.0018C6.67236 25.4442 6.84811 25.8685 7.16094 26.1814C7.47377 26.4942 7.89806 26.6699 8.34048 26.6699H11.6767C12.1191 26.6699 12.5434 26.4942 12.8562 26.1814C13.1691 25.8685 13.3448 25.4442 13.3448 25.0018V22.4997ZM8.34048 25.0018V22.4997H11.6767V25.0018H8.34048Z" fill="#4B99F1"/>
<path d="M41.666 26.6665C42.1084 26.6665 42.5327 26.4908 42.8455 26.1779C43.1583 25.8651 43.3341 25.4408 43.3341 24.9984V22.4962C43.3341 22.0538 43.1583 21.6295 42.8455 21.3167C42.5327 21.0039 42.1084 20.8281 41.666 20.8281H38.3297C37.8873 20.8281 37.463 21.0039 37.1502 21.3167C36.8374 21.6295 36.6616 22.0538 36.6616 22.4962V24.9984C36.6616 25.4408 36.8374 25.8651 37.1502 26.1779C37.463 26.4908 37.8873 26.6665 38.3297 26.6665H41.666ZM38.3297 22.4996H41.666V25.0017H38.3297V22.4996Z" fill="#4B99F1"/>
<path d="M23.3336 29.9992C23.3336 29.5568 23.1578 29.1325 22.845 28.8196C22.5322 28.5068 22.1079 28.3311 21.6655 28.3311H18.3493C17.9069 28.3311 17.4826 28.5068 17.1697 28.8196C16.8569 29.1325 16.6812 29.5568 16.6812 29.9992V32.5013C16.6812 32.9437 16.8569 33.368 17.1697 33.6809C17.4826 33.9937 17.9069 34.1694 18.3493 34.1694H21.6855C22.1279 34.1694 22.5522 33.9937 22.865 33.6809C23.1779 33.368 23.3536 32.9437 23.3536 32.5013L23.3336 29.9992ZM18.3292 32.5013V29.9992H21.6655V32.5013H18.3292Z" fill="#4B99F1"/>
<path d="M13.3448 29.9992C13.3448 29.5568 13.1691 29.1325 12.8562 28.8196C12.5434 28.5068 12.1191 28.3311 11.6767 28.3311H8.34048C7.89806 28.3311 7.47377 28.5068 7.16094 28.8196C6.84811 29.1325 6.67236 29.5568 6.67236 29.9992V32.5013C6.67236 32.9437 6.84811 33.368 7.16094 33.6809C7.47377 33.9937 7.89806 34.1694 8.34048 34.1694H11.6767C12.1191 34.1694 12.5434 33.9937 12.8562 33.6809C13.1691 33.368 13.3448 32.9437 13.3448 32.5013V29.9992ZM8.34048 32.5013V29.9992H11.6767V32.5013H8.34048Z" fill="#4B99F1"/>
<path d="M21.6655 35.8346H18.3493C17.9069 35.8346 17.4826 36.0103 17.1697 36.3232C16.8569 36.636 16.6812 37.0603 16.6812 37.5027V40.0049C16.6812 40.4473 16.8569 40.8716 17.1697 41.1844C17.4826 41.4972 17.9069 41.673 18.3493 41.673H21.6855C22.1279 41.673 22.5522 41.4972 22.865 41.1844C23.1779 40.8716 23.3536 40.4473 23.3536 40.0049V37.5027C23.3536 37.282 23.3098 37.0634 23.2247 36.8597C23.1397 36.656 23.015 36.4712 22.858 36.316C22.7009 36.1609 22.5147 36.0384 22.31 35.9558C22.1053 35.8731 21.8862 35.8319 21.6655 35.8346ZM18.3493 40.0015V37.4994H21.6855V40.0015H18.3493Z" fill="#4B99F1"/>
<path d="M28.3346 26.6665H31.6708C31.8899 26.6665 32.1068 26.6234 32.3092 26.5395C32.5116 26.4557 32.6955 26.3328 32.8504 26.1779C33.0053 26.023 33.1281 25.8391 33.212 25.6368C33.2958 25.4344 33.339 25.2175 33.339 24.9984V22.4962C33.339 22.2772 33.2958 22.0603 33.212 21.8579C33.1281 21.6555 33.0053 21.4716 32.8504 21.3167C32.6955 21.1618 32.5116 21.0389 32.3092 20.9551C32.1068 20.8713 31.8899 20.8281 31.6708 20.8281H28.3346C27.8922 20.8281 27.4679 21.0039 27.1551 21.3167C26.8422 21.6295 26.6665 22.0538 26.6665 22.4962V24.9984C26.6665 25.4408 26.8422 25.8651 27.1551 26.1779C27.4679 26.4908 27.8922 26.6665 28.3346 26.6665ZM28.3346 22.4996H31.6708V25.0017H28.3346V22.4996Z" fill="#4B99F1"/>
<path d="M26.6665 32.5013C26.6665 32.9437 26.8422 33.368 27.1551 33.6809C27.4679 33.9937 27.8922 34.1694 28.3346 34.1694C28.5558 34.1694 28.768 34.0816 28.9244 33.9252C29.0808 33.7687 29.1687 33.5566 29.1687 33.3354C29.1687 33.1142 29.0808 32.902 28.9244 32.7456C28.768 32.5892 28.5558 32.5013 28.3346 32.5013V29.9992H31.6708C31.892 29.9992 32.1042 29.9113 32.2606 29.7549C32.417 29.5985 32.5049 29.3863 32.5049 29.1651C32.5049 28.9439 32.417 28.7318 32.2606 28.5753C32.1042 28.4189 31.892 28.3311 31.6708 28.3311H28.3346C27.8922 28.3311 27.4679 28.5068 27.1551 28.8196C26.8422 29.1325 26.6665 29.5568 26.6665 29.9992V32.5013Z" fill="#4B99F1"/>
<path d="M11.6767 35.8345H8.34048C7.89806 35.8345 7.47377 36.0102 7.16094 36.3231C6.84811 36.6359 6.67236 37.0602 6.67236 37.5026V40.0048C6.67236 40.4472 6.84811 40.8715 7.16094 41.1843C7.47377 41.4971 7.89806 41.6729 8.34048 41.6729H11.6767C12.1191 41.6729 12.5434 41.4971 12.8562 41.1843C13.1691 40.8715 13.3448 40.4472 13.3448 40.0048V37.5026C13.3448 37.0602 13.1691 36.6359 12.8562 36.3231C12.5434 36.0102 12.1191 35.8345 11.6767 35.8345ZM8.34048 40.0014V37.4992H11.6767V40.0014H8.34048Z" fill="#4B99F1"/>
<path d="M39.1672 28.3345C37.0247 28.3345 34.9303 28.9698 33.1489 30.1601C31.3674 31.3504 29.979 33.0423 29.1591 35.0217C28.3392 37.0011 28.1246 39.1792 28.5426 41.2806C28.9606 43.3819 29.9923 45.3121 31.5073 46.8271C33.0223 48.3421 34.9525 49.3738 37.0538 49.7918C39.1552 50.2098 41.3333 49.9952 43.3127 49.1753C45.2921 48.3554 46.984 46.967 48.1743 45.1855C49.3646 43.4041 49.9999 41.3097 49.9999 39.1672C49.9999 36.2942 48.8586 33.5388 46.8271 31.5073C44.7956 29.4758 42.0402 28.3345 39.1672 28.3345ZM39.1672 48.3351C37.354 48.3351 35.5814 47.7974 34.0738 46.7901C32.5661 45.7827 31.391 44.3508 30.6971 42.6756C30.0032 41.0004 29.8217 39.157 30.1754 37.3786C30.5292 35.6002 31.4023 33.9666 32.6845 32.6845C33.9666 31.4023 35.6002 30.5292 37.3786 30.1754C39.157 29.8217 41.0004 30.0032 42.6756 30.6971C44.3508 31.391 45.7827 32.5661 46.7901 34.0738C47.7975 35.5814 48.3351 37.3539 48.3351 39.1672C48.3351 41.5987 47.3692 43.9306 45.6499 45.6499C43.9306 47.3692 41.5987 48.3351 39.1672 48.3351Z" fill="#4B99F1"/>
<path d="M43.9817 35.6741L37.4994 42.1564L34.5535 39.2105C34.3946 39.0685 34.1873 38.9927 33.9743 38.9986C33.7613 39.0046 33.5586 39.0919 33.4079 39.2426C33.2572 39.3933 33.1699 39.596 33.1639 39.809C33.1579 40.0221 33.2338 40.2293 33.3758 40.3882L36.9122 43.9246C37.0685 44.0805 37.2803 44.168 37.501 44.168C37.7218 44.168 37.9335 44.0805 38.0899 43.9246L45.1593 36.8518C45.3014 36.6929 45.3772 36.4857 45.3712 36.2726C45.3653 36.0596 45.278 35.8569 45.1273 35.7062C44.9766 35.5555 44.7739 35.4682 44.5609 35.4622C44.3478 35.4563 44.1406 35.5321 43.9817 35.6741Z" fill="#4B99F1"/>
</g>
<defs>
<clipPath id="clip0_463_1895">
<rect width="50" height="50" fill="white"/>
</clipPath>
</defs>
</svg>
