<svg width="540" height="78" viewBox="0 0 540 78" fill="none" xmlns="http://www.w3.org/2000/svg">
<path d="M502.252 77.9953C495.524 78.1037 488.881 76.3795 482.95 72.9851C477.289 69.7142 472.563 64.8665 469.274 58.9567C465.974 52.9023 464.273 46.0052 464.351 38.9996C464.273 31.9939 465.974 25.0968 469.274 19.0424C472.542 13.1141 477.273 8.26077 482.95 5.01399C488.903 1.71957 495.509 0.00012207 502.213 0.00012207C508.917 0.00012207 515.523 1.71957 521.476 5.01399C527.114 8.28688 531.814 13.1359 535.073 19.0424C538.391 25.0887 540.094 31.9913 539.996 38.9996C540.086 46.0068 538.384 52.9072 535.073 58.9567C531.814 64.8633 527.114 69.7123 521.476 72.9851C515.569 76.3691 508.953 78.0932 502.252 77.9953V77.9953ZM502.252 6.26653C496.506 6.167 490.832 7.6326 485.763 10.5252C481.036 13.2421 477.092 17.2836 474.353 22.2155C471.598 27.2856 470.168 33.0533 470.212 38.9161C470.144 44.7819 471.576 50.5562 474.353 55.6166C477.068 60.59 481.017 64.6647 485.763 67.3905C490.856 70.1687 496.494 71.6172 502.213 71.6172C507.931 71.6172 513.569 70.1687 518.662 67.3905C523.382 64.6928 527.305 60.645 529.994 55.7001C532.76 50.6348 534.191 44.8639 534.135 38.9996C534.199 33.1342 532.767 27.3611 529.994 22.299C527.305 17.3541 523.382 13.3063 518.662 10.6087C513.625 7.69741 507.978 6.20318 502.252 6.26653V6.26653Z" fill="#131313"/>
<path d="M21.9643 15.5353C26.0057 13.1574 30.5581 11.9484 35.171 12.0282C38.6239 11.9398 42.0547 12.6389 45.2348 14.0787C48.4149 15.5186 51.2713 17.6662 53.6136 20.3784L59.709 14.0322C56.732 10.4402 53.013 7.63844 48.8466 5.84895C44.3704 3.96075 39.5923 3.0247 34.7803 3.09337C28.5662 3.01276 22.435 4.6219 16.963 7.76951C11.7716 10.7217 7.46494 15.1789 4.53769 20.6289C1.46631 26.1869 -0.10264 32.546 0.00520826 38.9995C-0.0904448 45.4515 1.47765 51.8071 4.53769 57.3701C7.50725 62.7848 11.8033 67.231 16.963 70.2295C22.381 73.4749 28.4909 75.1718 34.7022 75.1562C39.5388 75.2166 44.3411 74.281 48.8466 72.4006C53.0244 70.5549 56.7432 67.6961 59.709 64.0503L53.6136 57.7876C51.2651 60.4913 48.4075 62.6332 45.2289 64.0724C42.0502 65.5116 38.6225 66.2155 35.171 66.1379C30.5581 66.2176 26.0057 65.0087 21.9643 62.6308C18.0743 60.3244 14.8561 56.9145 12.6649 52.7774C10.4515 48.5751 9.31904 43.8213 9.38276 38.9995C9.29118 34.1213 10.4245 29.3061 12.6649 25.0546C14.9011 21.0404 18.1152 17.7503 21.9643 15.5353V15.5353Z" fill="#131313"/>
<path d="M196.934 74.0707V65.3864H158.642V42.6737H174.037H182.946V34.1564H174.037H158.642V12.6127H212.094V3.92847H149.265V34.1564H129.572V3.92847H120.194V34.0729H82.528V3.92847H73.1504V74.0707H82.528V42.7572H120.194V74.0707H129.572V42.6737H149.265V74.0707H196.934Z" fill="#131313"/>
<path d="M261.326 42.1727C263.902 38.1161 265.215 33.2947 265.077 28.3947C265.244 25.014 264.683 21.6374 263.436 18.5249C262.19 15.4125 260.292 12.6471 257.888 10.4416C252.105 5.7792 244.958 3.47014 237.726 3.92844H212.094V74.0707H221.472V52.694H237.726H241.868L256.012 74.2377H266.25L250.62 50.6899C254.96 49.169 258.718 46.1791 261.326 42.1727ZM237.414 44.1767H221.784V12.6127H237.414C242.253 12.2457 247.062 13.6926 251.011 16.7043C252.594 18.1248 253.844 19.9226 254.658 21.9531C255.472 23.9836 255.829 26.19 255.7 28.3947C255.811 30.5972 255.446 32.7974 254.633 34.8247C253.819 36.8521 252.58 38.652 251.011 40.0851C247.062 43.0968 242.253 44.5437 237.414 44.1767V44.1767Z" fill="#131313"/>
<path d="M289.693 42.6737H314.31V34.1564H289.693V12.6127H339.473L337.206 3.92847H280.316V74.0707H327.907V65.3864H289.693V42.6737Z" fill="#131313"/>
<path d="M366.042 61.5453L342.364 3.92847H332.283L361.119 74.0707H370.419L399.176 3.92847H389.799L366.042 61.5453Z" fill="#131313"/>
<path d="M463.256 3.92847H452.55L416.916 43.0912V3.92847H407.538V74.0707H416.916V55.9506L428.95 42.9242L454.035 74.0707H465.054L435.202 35.4925L463.256 3.92847Z" fill="#131313"/>
<path d="M500.845 64.0503C499.673 62.0463 497.797 59.8752 495.218 60.5432C494.683 60.643 494.175 60.8714 493.734 61.2112C492.305 62.3938 491.265 64.0315 490.764 65.8874C490.159 68.0562 489.663 70.2583 489.279 72.4841C493.417 74.2053 497.812 75.1106 502.252 75.1562H505.143C504.173 71.2687 502.727 67.5347 500.845 64.0503V64.0503Z" fill="#131313"/>
<path d="M534.604 52.527L515.302 33.4049C514.843 32.9442 514.477 32.3879 514.227 31.7704C513.977 31.1528 513.848 30.4871 513.848 29.8143C513.848 29.1414 513.977 28.4757 514.227 27.8582C514.477 27.2406 514.843 26.6844 515.302 26.2236L527.414 13.1972C526.116 11.972 524.731 10.8553 523.273 9.85713L512.645 21.297C511.57 22.324 510.179 22.8917 508.737 22.8917C507.296 22.8917 505.905 22.324 504.83 21.297L488.263 5.849C486.925 6.40378 485.621 7.04516 484.356 7.76956C483.809 7.76956 483.496 8.52108 483.027 8.77159L501.548 26.8917C501.941 27.2896 502.253 27.7687 502.467 28.2999C502.68 28.831 502.791 29.4031 502.791 29.9813C502.791 30.5594 502.68 31.1315 502.467 31.6627C502.253 32.1938 501.941 32.673 501.548 33.0709L492.327 42.7572C491.312 43.8097 490.026 44.5149 488.634 44.7826C487.242 45.0504 485.807 44.8685 484.512 44.2602L466.851 36.578C466.851 37.3295 466.851 38.1645 466.851 38.9995C466.851 39.8346 466.851 41.5046 466.851 42.7572L479.12 48.1013C479.545 48.2823 479.922 48.5714 480.219 48.9434C480.516 49.3155 480.724 49.7594 480.824 50.2365C480.924 50.7136 480.914 51.2096 480.794 51.6815C480.674 52.1534 480.448 52.5869 480.136 52.9445L473.337 60.2092C474.6 62.1133 476.04 63.8758 477.635 65.4699L487.325 55.1991C488.024 54.4714 488.904 53.9742 489.86 53.7669C490.817 53.5596 491.809 53.6509 492.717 54.03L523.585 67.3904C525.272 66.0716 526.841 64.5902 528.274 62.9648H527.18L497.953 50.1054C497.536 49.9384 497.164 49.6618 496.873 49.3011C496.582 48.9404 496.38 48.5072 496.287 48.0415C496.194 47.5757 496.211 47.0923 496.339 46.6358C496.466 46.1793 496.699 45.7644 497.016 45.4293L504.83 37.079C505.574 36.3087 506.569 35.8779 507.604 35.8779C508.64 35.8779 509.635 36.3087 510.379 37.079L530.697 56.8691C530.959 57.3834 531.194 57.9131 531.4 58.4557C531.714 57.9627 532.053 57.4888 532.416 57.0361C533.354 55.2802 534.139 53.4353 534.76 51.5249C534.807 51.8682 534.752 52.2184 534.604 52.527V52.527Z" fill="#131313"/>
</svg>
