
<svg width="60" height="60" viewBox="0 0 60 60" fill="none" xmlns="http://www.w3.org/2000/svg">
<g clip-path="url(#clip0_411_478)">
<path d="M13.0002 5.99997H21.0001C21.5526 5.99997 22.0003 5.55228 22.0003 5.00021C22.0003 4.44769 21.5526 4 21.0001 4H13.0002C12.4477 4 12 4.44769 12 5.00021C12 5.55228 12.4477 5.99997 13.0002 5.99997Z" fill="#4B99F1"/>
<path d="M17.0002 50.9999C15.3435 50.9999 14 52.343 14 54.0001C14 55.6567 15.3435 56.9998 17.0002 56.9998C18.6573 56.9998 20.0004 55.6567 20.0004 54.0001C20.0004 52.343 18.6573 50.9999 17.0002 50.9999ZM17.0002 54.9998C16.4481 54.9998 16.0004 54.5521 16.0004 54.0001C16.0004 53.4475 16.4481 52.9998 17.0002 52.9998C17.5527 52.9998 18.0004 53.4475 18.0004 54.0001C18.0004 54.5521 17.5527 54.9998 17.0002 54.9998Z" fill="#4B99F1"/>
<path d="M43 22.9999C39.8149 22.9999 36.6943 23.9012 33.9999 25.6V5.00015C33.9967 2.23984 31.7601 0.00320435 28.9998 0H5.00015C2.23984 0.00320435 0.00320435 2.23984 0 5.00015V54.9998C0.00320435 57.7602 2.23984 59.9968 5.00015 60H28.9998C31.7601 59.9968 33.9967 57.7602 33.9999 54.9998V54.4002C40.1193 58.2239 47.9869 57.7657 53.6211 53.2567C59.2548 48.7477 61.4264 41.1722 59.0359 34.3634C56.646 27.5546 50.2162 22.998 43 22.9999ZM26.0001 39.9998C25.9982 42.7917 26.6881 45.5402 28.0078 48.0002H1.99997V9.99985H32V27.0621C28.1955 30.2829 26.001 35.0148 26.0001 39.9998ZM5.00015 1.99997H28.9998C30.6569 1.99997 32 3.34305 32 5.00015V7.99988H1.99997V5.00015C1.99997 3.34305 3.34305 1.99997 5.00015 1.99997ZM32 54.9998C32 56.657 30.6569 58 28.9998 58H5.00015C3.34305 58 1.99997 56.657 1.99997 54.9998V50.0002H29.2831C30.07 51.0828 30.9824 52.0688 32 52.9381V54.9998ZM43 54.9998C34.7159 54.9998 28 48.2845 28 39.9998C28 31.7157 34.7159 24.9998 43 24.9998C51.2842 24.9998 58 31.7157 58 39.9998C57.9904 48.2803 51.2805 54.9907 43 54.9998Z" fill="#4B99F1"/>
<path fill-rule="evenodd" clip-rule="evenodd" d="M38 31C34.6963 31 32 33.6542 32 36.95C32 38.1984 32.2508 40.2379 33.6478 42.6614C35.0414 45.0792 37.5444 47.8247 41.9643 50.5419L41.9682 50.5443C42.2791 50.7335 42.6361 50.8335 43 50.8335C43.3639 50.8335 43.7209 50.7335 44.0318 50.5443L44.0357 50.5419C48.4556 47.8247 50.9586 45.0792 52.3522 42.6614C53.7492 40.2379 54 38.1984 54 36.95C54 33.6542 51.3037 31 48 31C46.2713 31 44.7957 31.9267 43.8265 32.7301C43.5092 32.9931 43.2314 33.2551 43 33.4902C42.7686 33.2551 42.4908 32.9931 42.1735 32.7301C41.2043 31.9267 39.7287 31 38 31ZM42.1986 35.5981L42.1978 35.5971L42.1845 35.5799C42.1716 35.5633 42.1507 35.5367 42.1221 35.5015C42.0649 35.4311 41.9776 35.3268 41.8636 35.2001C41.6344 34.9453 41.3033 34.6065 40.8972 34.2699C40.0567 33.5733 39.0323 33 38 33C35.7817 33 34 34.7778 34 36.95C34 37.9086 34.1867 39.5916 35.3805 41.6626C36.5765 43.7374 38.8144 46.2556 43 48.8309C47.1856 46.2556 49.4235 43.7374 50.6195 41.6626C51.8133 39.5916 52 37.9086 52 36.95C52 34.7778 50.2183 33 48 33C46.9677 33 45.9433 33.5733 45.1028 34.2699C44.6967 34.6065 44.3656 34.9453 44.1364 35.2001C44.0224 35.3268 43.9351 35.4311 43.8779 35.5015C43.8769 35.5027 43.8755 35.5045 43.8737 35.5067C43.8246 35.5687 43.4824 36 43 36C43 36 42.3881 35.8511 42.1993 35.5991L42.1986 35.5981Z" fill="#4B99F1"/>
<path d="M16.9997 19.351C14.223 17.3703 10.4427 17.5831 7.90582 19.8628C5.43572 22.3031 5.71084 26.2129 6.79391 29.0629C7.10656 29.8269 7.48376 30.5626 7.92092 31.2629C8.13058 31.6209 8.34298 31.9789 8.5357 32.3529C9.08547 33.3577 9.44344 34.4563 9.59084 35.592C9.71169 36.9987 9.94149 38.394 10.2789 39.765C10.5526 40.8142 11.1239 42.9982 13.1078 42.9982C14.1877 42.9982 15.5427 42.1518 16.4326 35.559C16.5608 34.6289 16.8176 34.4361 16.9997 34.384C17.1819 34.4361 17.4387 34.6289 17.566 35.5568C18.4568 42.1568 19.8118 42.9982 20.8917 42.9982C22.8756 42.9982 23.4469 40.8142 23.7188 39.7709C24.0571 38.3981 24.2878 37.001 24.4087 35.592C24.5561 34.4558 24.914 33.3572 25.4638 32.352C25.657 31.9789 25.8689 31.6209 26.0786 31.2629C26.5162 30.5612 26.8934 29.8233 27.207 29.0579C28.2887 26.2111 28.5638 22.3008 26.0946 19.8577C23.5558 17.5804 19.7761 17.3698 16.9997 19.351ZM25.3379 28.3511C25.0628 29.0103 24.7337 29.6457 24.3537 30.2508C24.1258 30.6399 23.8969 31.0299 23.6877 31.4351C23.0235 32.6577 22.5936 33.9935 22.4197 35.3741C22.3084 36.6838 22.0965 37.9829 21.7857 39.2601C21.6726 39.689 21.3929 40.7602 21.0157 40.9661C20.7159 40.577 20.0599 39.076 19.5477 35.288C19.2478 33.077 18.0586 32.4879 17.1179 32.3771C17.0785 32.3776 17.0396 32.3812 17.0007 32.3867C16.9613 32.3812 16.9215 32.3776 16.8816 32.3771C15.9409 32.4838 14.7549 33.077 14.4509 35.2899C13.9396 39.076 13.2827 40.577 12.9838 40.9661C12.6066 40.7661 12.326 39.689 12.212 39.2527C11.9021 37.9779 11.6906 36.681 11.5798 35.3741C11.4059 33.9939 10.976 32.6582 10.3118 31.436C10.1026 31.0299 9.87374 30.6358 9.64578 30.2508C9.26583 29.6461 8.93716 29.0103 8.66296 28.3511C7.84356 26.1959 7.52175 23.0511 9.31161 21.2869C11.3299 19.5419 14.3324 19.5753 16.3117 21.3638C16.3227 21.3739 16.3369 21.3771 16.3479 21.3858C16.3589 21.3949 16.363 21.4077 16.3726 21.4169C17.6168 22.4034 18.5841 23.6952 19.1796 25.1669C19.2776 25.5107 19.5513 25.7762 19.8979 25.8632C20.2439 25.9506 20.611 25.8462 20.8596 25.5899C21.1086 25.3335 21.2016 24.9636 21.1036 24.6199C20.5836 23.1363 19.7147 21.7987 18.5708 20.7202C20.5195 19.5753 22.9813 19.8033 24.687 21.286C26.4777 23.0529 26.1559 26.1941 25.3379 28.3479V28.3511Z" fill="#4B99F1"/>
<path d="M11.5098 21.5368C9.86732 22.532 9.03923 24.461 9.44893 26.3369C9.54368 26.8025 9.95292 27.1367 10.4276 27.1371C10.4949 27.1367 10.5622 27.1298 10.6277 27.1161C10.8877 27.063 11.1161 26.9082 11.2621 26.6867C11.4082 26.4656 11.4603 26.195 11.4068 25.935C11.1591 24.9051 11.5981 23.8325 12.4967 23.2718C12.9595 22.9912 13.1152 22.3933 12.8474 21.9227C12.58 21.4522 11.9868 21.28 11.5089 21.5341L11.5098 21.5368Z" fill="#4B99F1"/>
<path d="M7.00018 13C7.00018 12.4474 6.55249 11.9998 5.99997 11.9998H5.00021C4.44769 11.9998 4 12.4474 4 13C4 13.552 4.44769 13.9997 5.00021 13.9997H5.99997C6.55249 13.9997 7.00018 13.552 7.00018 13Z" fill="#4B99F1"/>
<path d="M9.99976 13.9997H16.0001C16.5522 13.9997 16.9999 13.552 16.9999 13C16.9999 12.4474 16.5522 11.9998 16.0001 11.9998H9.99976C9.44769 11.9998 9 12.4474 9 13C9 13.552 9.44769 13.9997 9.99976 13.9997Z" fill="#4B99F1"/>
</g>
<defs>
<clipPath id="clip0_411_478">
<rect width="60" height="60" fill="white"/>
</clipPath>
</defs>
</svg>
