
<svg width="60" height="61" viewBox="0 0 60 61" fill="none" xmlns="http://www.w3.org/2000/svg">
<g clip-path="url(#clip0_411_595)">
<path d="M46.5564 60.8985H9.66452C9.43816 60.8985 9.22107 60.8085 9.06102 60.6485C8.90096 60.4884 8.81104 60.2713 8.81104 60.045V53.6942C8.81104 53.4678 8.90096 53.2507 9.06102 53.0907C9.22107 52.9306 9.43816 52.8407 9.66452 52.8407H46.5564C46.7828 52.8407 46.9999 52.9306 47.1599 53.0907C47.32 53.2507 47.4099 53.4678 47.4099 53.6942V60.045C47.4099 60.2713 47.32 60.4884 47.1599 60.6485C46.9999 60.8085 46.7828 60.8985 46.5564 60.8985ZM10.518 59.1915H45.7029V54.5477H10.518V59.1915Z" fill="#4B99F1"/>
<path d="M30.2762 33.3129C30.1289 33.3132 29.9841 33.275 29.8563 33.202L18.8839 26.986C18.6869 26.8744 18.5424 26.6892 18.4821 26.471C18.4217 26.2529 18.4505 26.0197 18.5621 25.8227L28.6998 7.94648C28.8114 7.74956 28.9966 7.60502 29.2148 7.54468C29.433 7.48434 29.6662 7.51313 29.8631 7.62472L40.8355 13.8407C40.9331 13.8959 41.0189 13.9699 41.0879 14.0583C41.1569 14.1467 41.2078 14.2479 41.2377 14.356C41.2676 14.4641 41.2759 14.5771 41.2621 14.6884C41.2483 14.7997 41.2127 14.9073 41.1573 15.0048L38.9962 18.8071C38.9409 18.9045 38.8668 18.9901 38.7784 19.059C38.69 19.1278 38.5888 19.1786 38.4807 19.2083C38.3727 19.2381 38.2598 19.2463 38.1486 19.2324C38.0374 19.2186 37.93 19.1829 37.8325 19.1276C37.7351 19.0722 37.6495 18.9982 37.5806 18.9097C37.5118 18.8213 37.461 18.7201 37.4313 18.6121C37.4015 18.504 37.3933 18.3911 37.4072 18.2799C37.421 18.1687 37.4567 18.0613 37.512 17.9638L39.2506 14.9041L29.7641 9.52714L20.4679 25.9217L29.9553 31.2987L33.9334 24.2813C34.0451 24.0844 34.2304 23.9399 34.4487 23.8797C34.6669 23.8194 34.9002 23.8483 35.0971 23.96C35.294 24.0717 35.4385 24.2571 35.4988 24.4753C35.559 24.6936 35.5301 24.9268 35.4184 25.1237L31.0196 32.8828C30.9447 33.0138 30.8365 33.1226 30.7059 33.1982C30.5753 33.2737 30.4271 33.3133 30.2762 33.3129Z" fill="#4B99F1"/>
<path d="M25.3993 37.721C25.2518 37.721 25.1069 37.6828 24.9786 37.61L17.607 33.428C17.4101 33.3164 17.2655 33.1311 17.2052 32.913C17.1449 32.6948 17.1737 32.4616 17.2852 32.2647L20.3621 26.8442C20.4737 26.6473 20.6589 26.5027 20.8771 26.4424C21.0952 26.382 21.3284 26.4108 21.5254 26.5224L28.8978 30.7045C29.0947 30.8161 29.2392 31.0014 29.2996 31.2195C29.3599 31.4377 29.3311 31.6709 29.2195 31.8678L26.1419 37.2943C26.031 37.4907 25.8469 37.6352 25.6298 37.6962C25.5545 37.7154 25.4769 37.7237 25.3993 37.721ZM19.1911 32.3662L25.0801 35.7042L27.3145 31.762L21.4255 28.4248L19.1911 32.3662Z" fill="#4B99F1"/>
<path d="M38.293 14.2374C38.1455 14.2374 38.0005 14.1992 37.8722 14.1264L31.1391 10.3088C30.9423 10.1971 30.7979 10.0117 30.7378 9.79359C30.6776 9.57545 30.7065 9.34233 30.8182 9.1455L33.3018 4.76456C33.4135 4.56778 33.5989 4.42343 33.817 4.36325C34.0352 4.30307 34.2683 4.33199 34.4651 4.44365L41.1948 8.26129C41.3918 8.37289 41.5363 8.55815 41.5966 8.7763C41.657 8.99446 41.6282 9.22766 41.5166 9.42459L39.033 13.8047C38.9587 13.9357 38.8512 14.0447 38.7212 14.1207C38.5913 14.1967 38.4435 14.2369 38.293 14.2374ZM32.724 9.24451L37.9721 12.2206L39.6133 9.32473L34.367 6.34948L32.724 9.24451Z" fill="#4B99F1"/>
<path d="M42.0483 10.5793C41.9011 10.5792 41.7565 10.5409 41.6284 10.4684L32.3502 5.20663C32.1532 5.09503 32.0087 4.90978 31.9484 4.69162C31.888 4.47346 31.9168 4.24026 32.0284 4.04333L33.7081 1.08174C33.8197 0.88481 34.0049 0.740278 34.2231 0.679936C34.4412 0.619595 34.6744 0.648384 34.8714 0.759973L44.1505 6.01915C44.3474 6.13075 44.4919 6.316 44.5523 6.53416C44.6126 6.75232 44.5838 6.98551 44.4722 7.18245L42.7934 10.144C42.7191 10.2763 42.6109 10.3863 42.4799 10.4628C42.349 10.5393 42.2 10.5795 42.0483 10.5793ZM33.9342 4.14148L41.7291 8.56168L42.5664 7.0843L34.7715 2.66581L33.9342 4.14148Z" fill="#4B99F1"/>
<path d="M39.8044 50.4004C39.6271 50.4002 39.4543 50.3448 39.3099 50.2419C39.1655 50.139 39.0567 49.9936 38.9988 49.826L37.6443 45.9145C37.6054 45.8006 37.5911 45.6797 37.6023 45.5599C37.6135 45.44 37.6499 45.3239 37.7092 45.2191C37.7684 45.1143 37.8491 45.0232 37.9461 44.9519C38.043 44.8805 38.1539 44.8304 38.2716 44.805C40.52 44.3202 42.5418 43.0974 44.0152 41.3311C45.4885 39.5648 46.3289 37.3566 46.4026 35.0576C46.4763 32.7587 45.7791 30.5011 44.4219 28.6441C43.0646 26.7871 41.1253 25.4373 38.9126 24.8095C38.7717 24.7696 38.6436 24.6942 38.5403 24.5905C38.4371 24.4868 38.3622 24.3583 38.323 24.2173C38.2837 24.0763 38.2814 23.9276 38.3162 23.7854C38.351 23.6433 38.4217 23.5125 38.5217 23.4055C38.905 22.9886 39.15 22.4633 39.2232 21.9016C39.2964 21.34 39.1942 20.7694 38.9305 20.2681C38.854 20.123 38.8209 19.959 38.8352 19.7956C38.8496 19.6321 38.9107 19.4763 39.0112 19.3467C39.1118 19.2172 39.2476 19.1193 39.4024 19.0649C39.5571 19.0105 39.7243 19.0018 39.8838 19.04C43.3947 19.8853 46.5205 21.884 48.761 24.7161C51.0016 27.5483 52.2272 31.0502 52.2419 34.6614C52.2565 38.2726 51.0593 41.7843 48.8419 44.6345C46.6244 47.4847 43.5149 49.5087 40.011 50.3825C39.9431 50.3969 39.8738 50.4029 39.8044 50.4004ZM39.5595 46.2269L40.3498 48.51C43.2464 47.616 45.788 45.8325 47.6138 43.4126C49.4397 40.9927 50.4571 38.0593 50.5217 35.0285C50.5863 31.9978 49.6948 29.0237 47.9738 26.5282C46.2527 24.0326 43.7895 22.1425 40.9336 21.1259C40.9464 21.2642 40.9532 21.405 40.9532 21.5458C40.9545 22.238 40.7944 22.9209 40.4855 23.5404C42.8123 24.4525 44.7968 26.0674 46.1626 28.1603C47.5285 30.2531 48.2077 32.7198 48.1058 35.2169C48.004 37.714 47.126 40.1171 45.5941 42.0918C44.0623 44.0664 41.9528 45.5143 39.5595 46.2337V46.2269Z" fill="#4B99F1"/>
<path d="M41.236 54.55H25.2758C25.1398 54.55 25.0057 54.5174 24.8848 54.4551C24.7638 54.3927 24.6596 54.3024 24.5806 54.1916C24.5017 54.0807 24.4504 53.9526 24.4311 53.818C24.4117 53.6833 24.4248 53.546 24.4693 53.4174L27.8021 43.773C27.8602 43.6053 27.969 43.4598 28.1136 43.3569C28.2582 43.2539 28.4312 43.1986 28.6087 43.1986H37.904C38.0815 43.1986 38.2545 43.2539 38.3991 43.3569C38.5436 43.4598 38.6525 43.6053 38.7105 43.773L42.0434 53.4174C42.0879 53.546 42.101 53.6835 42.0816 53.8182C42.0622 53.9529 42.0108 54.0811 41.9318 54.1919C41.8528 54.3028 41.7484 54.3931 41.6273 54.4554C41.5063 54.5177 41.3721 54.5501 41.236 54.55ZM26.4707 52.843H40.0411L37.298 44.9056H29.2155L26.4707 52.843Z" fill="#4B99F1"/>
<path d="M27.3027 48.684H17.2973C17.071 48.684 16.8539 48.594 16.6938 48.434C16.5338 48.2739 16.4438 48.0568 16.4438 47.8305V44.0495C16.4438 43.8232 16.5338 43.6061 16.6938 43.446C16.8539 43.286 17.071 43.196 17.2973 43.196H28.6077C28.7437 43.1961 28.8776 43.2286 28.9985 43.2909C29.1193 43.3532 29.2235 43.4435 29.3024 43.5542C29.3813 43.6649 29.4327 43.7929 29.4521 43.9274C29.4716 44.062 29.4586 44.1992 29.4143 44.3278L28.1093 48.1096C28.0512 48.2773 27.9424 48.4227 27.7978 48.5257C27.6533 48.6286 27.4802 48.6839 27.3027 48.684ZM18.1508 46.977H26.6942L27.4103 44.903H18.1508V46.977Z" fill="#4B99F1"/>
<path d="M36.4665 26.0291C35.5794 26.0291 34.7123 25.766 33.9747 25.2732C33.2372 24.7804 32.6623 24.0799 32.3229 23.2604C31.9834 22.4408 31.8946 21.539 32.0676 20.669C32.2407 19.799 32.6678 18.9999 33.2951 18.3726C33.9223 17.7454 34.7215 17.3182 35.5915 17.1451C36.4615 16.9721 37.3633 17.0609 38.1829 17.4004C39.0024 17.7398 39.7029 18.3147 40.1957 19.0523C40.6885 19.7898 40.9516 20.657 40.9516 21.544C40.9504 22.7332 40.4776 23.8733 39.6367 24.7142C38.7958 25.5551 37.6557 26.028 36.4665 26.0291ZM36.4665 18.7668C35.917 18.7668 35.3799 18.9297 34.923 19.235C34.4661 19.5403 34.11 19.9743 33.8998 20.4819C33.6896 20.9896 33.6346 21.5483 33.7419 22.0872C33.8491 22.6261 34.1138 23.1211 34.5024 23.5096C34.891 23.8981 35.3861 24.1626 35.9251 24.2697C36.464 24.3768 37.0226 24.3217 37.5302 24.1113C38.0378 23.9009 38.4717 23.5447 38.7768 23.0877C39.082 22.6307 39.2448 22.0935 39.2446 21.544C39.2437 20.8076 38.9507 20.1016 38.4299 19.5809C37.909 19.0603 37.203 18.7675 36.4665 18.7668Z" fill="#4B99F1"/>
</g>
<defs>
<clipPath id="clip0_411_595">
<rect width="60" height="60" fill="white" transform="translate(0 0.5)"/>
</clipPath>
</defs>
</svg>
