
<svg width="60" height="61" viewBox="0 0 60 61" fill="none" xmlns="http://www.w3.org/2000/svg">
<g clip-path="url(#clip0_411_492)">
<path d="M10.3855 60.4998H23.0011C24.6581 60.4998 26.0011 59.1567 26.0011 57.5001V45.8852C26.0062 44.0282 25.2678 42.2461 23.9504 40.9365L12.8345 29.8302C11.5596 28.5352 9.56614 28.2757 8.00156 29.2012V20.5013C8.00156 18.2922 6.21085 16.5015 4.00176 16.5015C1.79266 16.5015 0.00195312 18.2922 0.00195312 20.5013V34.501C0.00195312 37.9607 5.30176 52.4731 7.57585 58.5511C8.01712 59.7207 9.1354 60.4961 10.3855 60.4998ZM2.00185 20.5013C2.00185 19.3967 2.89721 18.5014 4.00176 18.5014C5.1063 18.5014 6.00166 19.3967 6.00166 20.5013V32.6508C6.00395 33.7128 6.42691 34.7304 7.17761 35.4806C8.82688 37.1148 10.2647 38.6807 11.7858 40.3305C12.8976 41.5398 14.0484 42.7904 15.2857 44.0643C16.4667 45.2833 17.3016 46.2437 17.3016 47.5006C17.3016 48.0527 17.7493 48.5003 18.3014 48.5003C18.8539 48.5003 19.3015 48.0527 19.3015 47.5006C19.3015 45.3355 17.8683 43.8583 16.7175 42.6714C15.4976 41.4144 14.3725 40.1908 13.2556 38.9769C11.7858 37.3766 10.2656 35.7269 8.59297 34.0698C8.05145 33.5736 7.82578 32.8211 8.00431 32.1088C8.18283 31.3966 8.73762 30.8395 9.44896 30.6578C10.1603 30.4761 10.9142 30.699 11.4127 31.2378L22.5364 42.3505C23.4771 43.2861 24.0044 44.5587 24.0012 45.8852V57.5001C24.0012 58.0522 23.5536 58.4999 23.0011 58.4999H10.3855C9.96896 58.4985 9.59635 58.2403 9.44896 57.8512C5.84877 48.2403 2.00185 37.0599 2.00185 34.501V20.5013Z" fill="#4B99F1"/>
<path d="M55.9999 16.5015C53.7908 16.5015 52.0001 18.2922 52.0001 20.5013V29.2012C50.4387 28.2784 48.4503 28.5343 47.1731 29.8219L36.0517 40.9365C34.7343 42.2461 33.9955 44.0282 34.0005 45.8852V57.5001C34.0005 59.1567 35.344 60.4998 37.0006 60.4998H49.6161C50.8662 60.4966 51.9841 59.7216 52.4263 58.552C54.6999 52.4731 59.9997 37.9607 59.9997 34.501V20.5013C59.9997 18.2922 58.209 16.5015 55.9999 16.5015ZM50.5531 57.8512C50.4053 58.2403 50.0327 58.4985 49.6161 58.4999H37.0006C36.4481 58.4999 36.0004 58.0522 36.0004 57.5001V45.8852C35.9972 44.5587 36.525 43.2861 37.4657 42.3505L48.5931 31.2318C49.1666 30.6647 50.0244 30.4971 50.7692 30.807C51.5135 31.1174 51.9992 31.8443 52.0001 32.6508C51.9978 33.1795 51.7881 33.6858 51.416 34.0607C49.7342 35.7269 48.2163 37.3789 46.7442 38.9769C45.6273 40.1908 44.5022 41.4144 43.2823 42.6764C42.1315 43.8583 40.7006 45.3355 40.7006 47.5006C40.7006 48.0527 41.1483 48.5003 41.7003 48.5003C42.2528 48.5003 42.7005 48.0527 42.7005 47.5006C42.7005 46.2437 43.5372 45.2833 44.7205 44.0643C45.9551 42.7904 47.1063 41.5398 48.22 40.3305C49.7411 38.6766 51.1789 37.1148 52.8368 35.4719C53.5821 34.7221 54.0004 33.7078 54 32.6508V20.5013C54 19.3967 54.8953 18.5014 55.9999 18.5014C57.1044 18.5014 57.9998 19.3967 57.9998 20.5013V34.501C57.9998 37.0599 54.1529 48.2403 50.5531 57.8512Z" fill="#4B99F1"/>
<path d="M38.4437 27.6339C38.8758 25.9146 39.1733 24.1642 39.3326 22.3982C39.5299 20.9334 40.0051 19.5194 40.7329 18.2322C40.9856 17.7575 41.2625 17.3016 41.5385 16.8452C42.0988 15.9741 42.5826 15.0564 42.9845 14.1015C44.3647 10.5828 44.7267 5.75674 41.6026 2.7649C38.6359 -0.0841256 33.419 -0.242049 30.001 2.2719C26.5853 -0.241133 21.3683 -0.085041 18.4016 2.7649C15.2766 5.75766 15.6387 10.5837 17.0183 14.1033C17.4211 15.0573 17.905 15.9746 18.4653 16.8452C18.7413 17.3016 19.0182 17.7575 19.2723 18.2322C19.9996 19.5199 20.4748 20.9338 20.6725 22.3991C20.8318 24.1619 21.1284 25.9096 21.5592 27.6261C21.8952 28.884 22.6015 31.501 24.941 31.501C25.6931 31.501 27.6921 31.501 28.9669 22.351C29.1743 20.8894 29.6842 20.6812 30.001 20.6294C30.3182 20.6812 30.8281 20.8894 31.035 22.3492C32.3099 31.501 34.3088 31.501 35.0609 31.501C37.4009 31.501 38.1068 28.884 38.4437 27.6339ZM33.0162 22.0713C32.6449 19.4503 31.2341 18.7513 30.1159 18.6272C30.0779 18.6286 30.0399 18.6323 30.0019 18.6382C29.9639 18.6323 29.925 18.6286 29.8861 18.6272C28.7683 18.7513 27.357 19.4503 26.9862 22.0732C26.2072 27.6659 25.1864 29.344 24.941 29.5011C24.1953 29.5011 23.8003 28.2651 23.4854 27.1011C23.0789 25.4839 22.8015 23.8373 22.6555 22.1762C22.4326 20.4601 21.8828 18.8026 21.0355 17.2934C20.7654 16.7866 20.4702 16.2987 20.1754 15.8116C19.6737 15.0371 19.2389 14.2214 18.8754 13.3737C17.7846 10.5915 17.3676 6.52393 19.7813 4.21093C22.1954 1.89792 26.7391 1.94278 29.324 4.30202C29.334 4.31071 29.3473 4.31392 29.3569 4.3217C29.367 4.32994 29.3729 4.34505 29.3853 4.35374C29.4151 4.37709 32.3941 6.71664 33.1251 9.21274C33.2496 9.63936 33.6405 9.93278 34.085 9.93278C34.1802 9.93278 34.275 9.91904 34.3661 9.89158C34.6206 9.81742 34.8352 9.6444 34.9625 9.41186C35.0898 9.17932 35.1195 8.90513 35.0449 8.65063C34.3281 6.71527 33.1407 4.98818 31.5898 3.62592C34.2319 1.97208 38.0679 2.15014 40.2156 4.21184C42.6289 6.52393 42.2155 10.5915 41.1156 13.3728C40.7526 14.221 40.3177 15.0371 39.8155 15.8116C39.5157 16.2987 39.226 16.7866 38.9568 17.2925C38.1091 18.8012 37.5589 20.4592 37.3359 22.1753C37.1894 23.8392 36.9111 25.4884 36.5037 27.1079C36.1906 28.267 35.7961 29.5029 35.1387 29.5198C34.8211 29.344 33.7948 27.6659 33.0162 22.0713Z" fill="#4B99F1"/>
<path d="M22.5221 4.62385C20.5039 5.79386 19.4753 8.13615 19.9802 10.4139C20.0988 10.949 20.6261 11.2891 21.1626 11.1765C21.6991 11.0635 22.0447 10.5393 21.9371 10.0019C21.6181 8.58658 22.242 7.12636 23.4852 6.37886C23.9691 6.11291 24.1462 5.50502 23.8803 5.02072C23.6143 4.53688 23.0064 4.36019 22.5221 4.62568V4.62385Z" fill="#4B99F1"/>
<path d="M7.00164 3.50195C6.44914 3.50195 6.00146 3.94963 6.00146 4.50213V6.50203C6.00146 7.05408 6.44914 7.50176 7.00164 7.50176C7.55369 7.50176 8.00137 7.05408 8.00137 6.50203V4.50213C8.00137 3.94963 7.55369 3.50195 7.00164 3.50195Z" fill="#4B99F1"/>
<path d="M6.00146 12.5017C6.00146 13.0537 6.44914 13.5014 7.00164 13.5014C7.55369 13.5014 8.00137 13.0537 8.00137 12.5017V10.5018C8.00137 9.94926 7.55369 9.50159 7.00164 9.50159C6.44914 9.50159 6.00146 9.94926 6.00146 10.5018V12.5017Z" fill="#4B99F1"/>
<path d="M9.00164 9.50161H11.0015C11.554 9.50161 12.0017 9.05393 12.0017 8.50189C12.0017 7.94939 11.554 7.50171 11.0015 7.50171H9.00164C8.4496 7.50171 8.00146 7.94939 8.00146 8.50189C8.00146 9.05393 8.4496 9.50161 9.00164 9.50161Z" fill="#4B99F1"/>
<path d="M5.00203 7.50171H3.00213C2.44963 7.50171 2.00195 7.94939 2.00195 8.50189C2.00195 9.05393 2.44963 9.50161 3.00213 9.50161H5.00203C5.55408 9.50161 6.00176 9.05393 6.00176 8.50189C6.00176 7.94939 5.55408 7.50171 5.00203 7.50171Z" fill="#4B99F1"/>
<path d="M53.0002 3.50195C52.4482 3.50195 52.0005 3.94963 52.0005 4.50213V6.50203C52.0005 7.05408 52.4482 7.50176 53.0002 7.50176C53.5527 7.50176 54.0004 7.05408 54.0004 6.50203V4.50213C54.0004 3.94963 53.5527 3.50195 53.0002 3.50195Z" fill="#4B99F1"/>
<path d="M52.0005 12.5017C52.0005 13.0537 52.4482 13.5014 53.0002 13.5014C53.5527 13.5014 54.0004 13.0537 54.0004 12.5017V10.5018C54.0004 9.94926 53.5527 9.50159 53.0002 9.50159C52.4482 9.50159 52.0005 9.94926 52.0005 10.5018V12.5017Z" fill="#4B99F1"/>
<path d="M55.0002 9.50161H57.0001C57.5521 9.50161 57.9998 9.05393 57.9998 8.50189C57.9998 7.94939 57.5521 7.50171 57.0001 7.50171H55.0002C54.4477 7.50171 54 7.94939 54 8.50189C54 9.05393 54.4477 9.50161 55.0002 9.50161Z" fill="#4B99F1"/>
<path d="M51.0001 7.50171H49.0002C48.4482 7.50171 48.0005 7.94939 48.0005 8.50189C48.0005 9.05393 48.4482 9.50161 49.0002 9.50161H51.0001C51.5526 9.50161 52.0003 9.05393 52.0003 8.50189C52.0003 7.94939 51.5526 7.50171 51.0001 7.50171Z" fill="#4B99F1"/>
<path d="M33.5363 32.9649C33.1454 32.5744 32.5128 32.5744 32.1223 32.9649L30.7083 34.3798C30.4483 34.6311 30.3439 35.0028 30.4355 35.3525C30.527 35.7018 30.7998 35.9751 31.1496 36.0667C31.4993 36.1582 31.871 36.0538 32.1223 35.7938L33.5363 34.3789C33.9264 33.9884 33.9264 33.3553 33.5363 32.9649Z" fill="#4B99F1"/>
<path d="M27.8801 37.2077L26.4661 38.6227C26.2061 38.874 26.1017 39.2457 26.1933 39.5954C26.2848 39.9447 26.5581 40.218 26.9074 40.3095C27.2571 40.4011 27.6288 40.2967 27.8801 40.0367L29.2942 38.6217C29.6732 38.2294 29.6677 37.6055 29.2818 37.2201C28.8959 36.8342 28.2724 36.8287 27.8801 37.2077Z" fill="#4B99F1"/>
<path d="M32.122 37.2077C31.7293 36.8287 31.1058 36.8342 30.7199 37.2201C30.3345 37.6055 30.329 38.2294 30.708 38.6217L32.122 40.0367C32.3729 40.2967 32.7446 40.4011 33.0943 40.3095C33.4441 40.218 33.7169 39.9447 33.8084 39.5954C33.9 39.2457 33.7956 38.874 33.5361 38.6227L32.122 37.2077Z" fill="#4B99F1"/>
<path d="M29.2943 34.3799L27.8803 32.9649C27.488 32.5859 26.864 32.5914 26.4786 32.9773C26.0927 33.3627 26.0872 33.9866 26.4663 34.3789L27.8803 35.7939C28.2726 36.1729 28.8961 36.1674 29.282 35.782C29.6679 35.3961 29.6733 34.7722 29.2943 34.3799Z" fill="#4B99F1"/>
</g>
<defs>
<clipPath id="clip0_411_492">
<rect width="60" height="60" fill="white" transform="translate(0 0.5)"/>
</clipPath>
</defs>
</svg>
