
<svg width="60" height="61" viewBox="0 0 60 61" fill="none" xmlns="http://www.w3.org/2000/svg">
<g clip-path="url(#clip0_411_536)">
<path d="M55.8192 20.5345C55.6407 17.5028 53.6508 14.8784 50.7792 13.8887C47.9081 12.899 44.7234 13.7399 42.7147 16.0178C40.7065 18.2961 40.2712 21.5613 41.6129 24.2859L32.697 33.2C32.5089 33.3918 32.2516 33.4999 31.9829 33.4999H24.963V28.4997H32.963C34.6196 28.4997 35.9632 27.1566 35.9632 25.4999C35.9632 23.8428 34.6196 22.4997 32.963 22.4997H24.963V13.4996C24.9676 10.9553 26.578 8.69076 28.9799 7.85168C29.0596 9.58524 29.7851 11.2263 31.0138 12.4518L31.721 13.1586C32.502 13.9395 33.7682 13.9395 34.5491 13.1586L41.6211 6.08653C42.4016 5.30558 42.4016 4.03986 41.6211 3.25845L40.913 2.55166C38.6457 0.278392 35.1199 -0.15557 32.3688 1.49971H30.963C24.3386 1.50658 18.97 6.87526 18.9631 13.4996V20.4998H9.96295V13.4996C9.96295 12.395 10.8583 11.4996 11.9629 11.4996C13.0675 11.4996 13.9629 12.395 13.9629 13.4996V14.4998C13.9629 15.0519 14.4106 15.4996 14.9627 15.4996C15.5152 15.4996 15.9629 15.0519 15.9629 14.4998V13.4996C15.9629 11.2904 14.1721 9.49963 11.9629 9.49963C9.75375 9.49963 7.96297 11.2904 7.96297 13.4996V20.4998C6.30586 20.4998 4.96277 21.8428 4.96277 23.5V27.4999C4.96277 29.1566 6.30586 30.4997 7.96297 30.4997H18.9631V33.4999H16.6427C16.2476 33.5008 15.8562 33.5772 15.49 33.726L5.74097 37.7658C4.60388 38.2313 3.71032 39.1464 3.27178 40.294C2.8186 41.449 2.86391 42.7399 3.39584 43.8609C3.48419 44.0495 3.58673 44.2317 3.703 44.4048L2.73666 44.8048C0.53892 45.8161 -0.465877 48.3841 0.461557 50.6185C1.38945 52.8533 3.91815 53.9538 6.18592 53.111L17.1481 48.5741C17.2689 48.5242 17.3989 48.499 17.5298 48.4999H24.963V54.4999H23.9628C22.3062 54.4999 20.9631 55.843 20.9631 57.5001C20.9631 59.1567 22.3062 60.4998 23.9628 60.4998H35.9632C37.6198 60.4998 38.9629 59.1567 38.9629 57.5001C38.9629 55.843 37.6198 54.4999 35.9632 54.4999H34.9629V48.4281C37.4518 48.1621 39.7736 47.0488 41.5392 45.275L58.6391 28.1797C59.8874 26.9465 60.2998 25.0976 59.6938 23.4505C59.0872 21.8039 57.5743 20.6636 55.8243 20.5345H55.8192ZM48.343 15.4996C51.3052 15.5032 53.7323 17.8525 53.833 20.8129C53.2525 21.0363 52.7256 21.3796 52.2862 21.82L47.6632 26.4457C44.7825 26.0877 42.6777 23.5503 42.8576 20.6531C43.0375 17.7559 45.4403 15.4987 48.343 15.4996ZM32.963 24.4997C33.515 24.4997 33.9632 24.9474 33.9632 25.4999C33.9632 26.052 33.515 26.4997 32.963 26.4997H24.963V24.4997H32.963ZM39.498 3.96478L40.2062 4.67157L33.136 11.7436L32.4278 11.0359C31.1378 9.77841 30.6242 7.924 31.0829 6.1822C31.5416 4.43994 32.9021 3.07946 34.6443 2.62032C36.3861 2.16118 38.2405 2.6748 39.498 3.96478ZM7.96297 28.4997C7.41045 28.4997 6.96275 28.052 6.96275 27.4999V23.5C6.96275 22.9474 7.41045 22.4997 7.96297 22.4997H18.9631V28.4997H7.96297ZM20.9631 29.4999V13.4996C20.9713 8.27969 24.9905 3.94281 30.1948 3.5386C29.7417 4.19641 29.4061 4.92747 29.2029 5.69972C25.5558 6.52232 22.9649 9.76102 22.9631 13.4996V33.4999H20.9631V29.4999ZM5.20768 43.015C4.90876 42.3865 4.88266 41.6627 5.13581 41.015C5.38025 40.3792 5.87556 39.8729 6.5059 39.6147L16.2449 35.579C16.3717 35.5273 16.5076 35.5007 16.645 35.5007H31.9829C32.7812 35.5021 33.5471 35.184 34.1101 34.6177L42.7482 25.9797C43.6234 26.9639 44.7431 27.6995 45.9942 28.1129L34.9011 39.205C34.713 39.3918 34.4589 39.497 34.1939 39.498H17.7299C16.2884 39.497 14.861 39.7809 13.5299 40.3329L5.63386 43.6C5.45853 43.4311 5.31434 43.2333 5.20768 43.015ZM36.9629 57.5001C36.9629 58.0521 36.5152 58.4998 35.9632 58.4998H23.9628C23.4107 58.4998 22.9631 58.0521 22.9631 57.5001C22.9631 56.9476 23.4107 56.4999 23.9628 56.4999H35.9632C36.5152 56.4999 36.9629 56.9476 36.9629 57.5001ZM26.963 54.4999V48.4999H32.963V54.4999H26.963ZM57.2259 26.7597L40.1261 43.86C38.4424 45.5542 36.1513 46.505 33.7631 46.5H17.5298C17.1361 46.499 16.7461 46.5769 16.3827 46.7279L5.421 51.263C4.80988 51.5189 4.12231 51.5207 3.51028 51.269C2.89779 51.0167 2.41118 50.5306 2.15758 49.919C2.03078 49.6141 1.9644 49.2878 1.96257 48.9577C1.96395 47.9479 2.57277 47.0374 3.5057 46.651L14.2898 42.1809C15.3806 41.7296 16.5497 41.4979 17.7299 41.4998H34.1939C34.9904 41.5021 35.7544 41.1853 36.3161 40.6209L48.7303 28.2067L53.703 23.2335C54.6885 22.2841 56.25 22.2873 57.231 23.2418C57.7006 23.7073 57.9639 24.3418 57.9629 25.0028C57.962 25.6638 57.6965 26.2974 57.2259 26.762V26.7597Z" fill="#4B99F1"/>
</g>
<defs>
<clipPath id="clip0_411_536">
<rect width="60" height="60" fill="white" transform="translate(0 0.5)"/>
</clipPath>
</defs>
</svg>
