<svg width="302" height="54" viewBox="0 0 302 54" fill="none" xmlns="http://www.w3.org/2000/svg">
<g clip-path="url(#clip0_41_318)">
<path d="M50.9836 54C50.7354 54 50.5581 53.7911 50.5581 53.5822V0.417795C50.5581 0.174081 50.7708 0 50.9836 0C51.1963 0 51.409 0.208897 51.409 0.417795V53.5474C51.409 53.7911 51.1963 53.9652 50.9836 53.9652V54Z" fill="white"/>
<path d="M41.5527 8.45999C41.4463 8.07701 41.2336 7.69403 40.9145 7.38069C40.7018 7.17179 40.4891 7.03252 40.2409 6.96289L29.4982 18.2782C28.4346 19.3923 28.47 21.1679 29.5691 22.2472L40.4182 32.6921C40.5954 32.518 40.7018 32.2395 40.7727 31.9958C42.3681 27.1563 43.9636 22.1428 43.5381 17.0596C43.29 14.135 42.4036 11.2801 41.5172 8.45999H41.5527Z" fill="white"/>
<path d="M28.1151 15.4231L37.9714 5.0479C37.9714 5.0479 38.1487 4.80418 38.1487 4.66492C38.2551 4.10786 38.2196 3.5508 37.9005 3.06337C37.6169 2.61076 37.1205 2.29741 36.6596 2.0537C32.7596 -0.104908 27.7606 -0.139725 23.8251 1.94925C22.0524 2.88929 20.5279 4.21231 18.6488 4.90863C17.4434 5.36124 16.0961 5.39606 14.7843 5.43087C14.1107 5.43087 13.7916 6.26646 14.2525 6.71908C14.2525 6.71908 20.2088 12.3593 23.6124 15.5624C24.8888 16.7462 26.8742 16.6765 28.0797 15.4231H28.1151Z" fill="white"/>
<path d="M1.63095 26.8438C1.27641 26.9482 0.992772 27.2615 0.850955 27.8186C0.744592 28.2364 0.8155 28.6542 0.921863 29.072C1.77277 31.9269 2.62367 34.8167 3.82912 37.5672C4.00639 38.0198 4.25457 38.4724 4.64457 38.7509H4.68002L10.1754 32.9714C10.9909 32.1358 10.6718 30.778 9.60817 30.2906L1.6664 26.8438H1.63095Z" fill="white"/>
<path d="M35.9863 41.6406L17.3019 33.5632C16.2737 33.1106 15.0682 33.3543 14.2882 34.1899L6.91374 41.954C6.77193 42.7547 6.9492 43.6251 7.3392 44.5652C8.11919 46.4801 9.14737 48.2557 10.4237 49.8921C10.7074 50.2402 11.0974 50.5188 11.5228 50.6232C12.6573 50.9017 13.2955 49.9269 13.6501 49.0217C14.8201 46.2015 14.9264 43.0333 15.8482 40.1435C16.1673 39.1338 16.5928 38.159 17.5146 37.5323C17.7628 37.3582 18.0109 37.2538 18.2946 37.1841C19.7837 36.836 20.8118 38.0197 21.4855 39.1338C23.8609 43.0333 24.4636 47.6986 25.6691 52.0855C25.7754 52.5033 25.9882 52.8514 26.3073 53.1648C27.1227 53.8959 27.9027 53.4781 28.5054 53.0603C31.7318 50.9017 34.3199 47.7683 35.7736 44.217C36.0572 43.4859 36.3408 42.6851 36.0572 41.9191C36.0572 41.8147 35.9863 41.7451 35.9508 41.6406H35.9863Z" fill="white"/>
<path d="M36.3764 38.5064C37.44 38.5761 38.5745 38.2627 38.8227 37.2182C38.8936 36.9745 38.8582 36.696 38.8227 36.4523C38.7164 35.9648 38.5391 35.5122 38.3264 35.0596L26.9101 24.0577C26.0237 23.2221 24.6055 23.2569 23.7901 24.1273L19.3583 28.7927C18.5783 29.5935 18.8619 30.9165 19.8901 31.3691L36.4118 38.5064H36.3764Z" fill="white"/>
<path d="M16.8763 27.2959L21.9462 21.969C22.868 20.9941 22.8326 19.497 21.8753 18.557L6.55905 3.79492C6.06269 3.93419 5.56633 4.1779 5.06997 4.45643C3.58089 5.32684 2.37544 6.71949 1.6309 8.2514C0.425452 10.7582 0.212726 13.6479 0.106363 16.4332C0.0354543 17.7911 0 19.1489 0 20.5415C0 21.3075 0 22.1083 0.24818 22.8394L12.6217 28.1663C14.0754 28.793 15.7772 28.4448 16.8763 27.2959Z" fill="white"/>
<path d="M136.251 46.7926C135.896 45.9918 135.364 45.3999 134.655 44.9473C133.946 44.4947 133.131 44.2858 132.245 44.2858C131.358 44.2858 130.614 44.4947 129.905 44.8777C129.195 45.2607 128.664 45.8177 128.274 46.514C127.884 47.2104 127.671 48.0111 127.671 48.9164C127.671 49.8216 127.884 50.6224 128.274 51.3187C128.664 52.015 129.231 52.5721 129.905 52.955C130.578 53.338 131.358 53.5469 132.245 53.5469C133.166 53.5469 133.982 53.338 134.691 52.8506C135.4 52.398 135.932 51.7713 136.286 50.9705V53.4773H136.854V40.3516H136.251V46.7578V46.7926ZM135.719 51.0401C135.364 51.6668 134.904 52.1543 134.301 52.5024C133.698 52.8506 133.025 53.0247 132.245 53.0247C131.465 53.0247 130.791 52.8506 130.188 52.5024C129.585 52.1543 129.089 51.6668 128.77 51.0401C128.415 50.4135 128.238 49.7171 128.238 48.9164C128.238 48.1156 128.415 47.4193 128.77 46.7926C129.125 46.1659 129.585 45.6784 130.188 45.3303C130.791 44.9821 131.465 44.808 132.245 44.808C133.025 44.808 133.698 44.9821 134.301 45.3303C134.904 45.6784 135.364 46.1659 135.719 46.7926C136.074 47.4193 136.251 48.1156 136.251 48.9164C136.251 49.7171 136.074 50.4483 135.719 51.0401Z" fill="white"/>
<path d="M132.209 53.826C131.323 53.826 130.472 53.6171 129.763 53.1993C129.018 52.7815 128.451 52.1896 128.025 51.4585C127.6 50.7274 127.387 49.8569 127.387 48.9169C127.387 47.9769 127.6 47.1413 128.025 46.3753C128.451 45.6442 129.018 45.0523 129.763 44.6345C130.507 44.2167 131.323 44.0078 132.209 44.0078C133.166 44.0078 134.017 44.2515 134.762 44.7041C135.223 44.9827 135.613 45.3656 135.932 45.7834V40.1084H137.066V53.7564H135.967V51.9807C135.648 52.4333 135.258 52.7815 134.797 53.0949C134.053 53.5823 133.166 53.826 132.209 53.826ZM132.209 44.5301C131.394 44.5301 130.684 44.7041 130.011 45.0871C129.373 45.4701 128.841 45.9923 128.451 46.6539C128.061 47.3154 127.884 48.0813 127.884 48.9169C127.884 49.7525 128.061 50.5185 128.451 51.18C128.841 51.8415 129.337 52.3637 130.011 52.7467C130.684 53.1297 131.394 53.3038 132.209 53.3038C132.705 53.3038 133.166 53.2341 133.592 53.0949C133.166 53.2341 132.705 53.3038 132.209 53.3038C131.394 53.3038 130.684 53.1297 130.046 52.7467C129.408 52.3637 128.876 51.8415 128.522 51.18C128.167 50.5185 127.954 49.7525 127.954 48.9169C127.954 48.0813 128.132 47.3154 128.522 46.6539C128.876 45.9923 129.408 45.4701 130.046 45.1219C130.684 44.739 131.429 44.5649 132.209 44.5649C132.989 44.5649 133.734 44.739 134.372 45.1219L134.478 45.1916C133.804 44.739 133.024 44.5301 132.209 44.5301ZM136.499 53.2341H136.534V40.6306H136.464V48.0117L136.322 47.7332C136.393 48.0813 136.464 48.4991 136.464 48.8821C136.464 49.2651 136.428 49.648 136.322 50.031L136.464 49.6829V53.1993L136.499 53.2341ZM132.209 45.0523C131.5 45.0523 130.862 45.2264 130.294 45.5397C129.727 45.8531 129.266 46.3057 128.947 46.8976C128.628 47.4894 128.451 48.151 128.451 48.9169C128.451 49.6829 128.628 50.3444 128.947 50.9363C129.266 51.5281 129.727 51.9807 130.294 52.2941C130.862 52.6074 131.5 52.7815 132.209 52.7815C132.918 52.7815 133.556 52.6074 134.124 52.2941C134.691 51.9807 135.116 51.5281 135.471 50.9363C135.79 50.3444 135.967 49.6829 135.967 48.9169C135.967 48.151 135.79 47.4894 135.471 46.8976C135.152 46.3057 134.691 45.8531 134.124 45.5397C133.556 45.2264 132.918 45.0523 132.209 45.0523Z" fill="white"/>
<path d="M146.391 44.8429C145.717 44.4599 144.973 44.251 144.157 44.251C143.342 44.251 142.562 44.4599 141.924 44.8429C141.25 45.2258 140.718 45.7829 140.364 46.4792C139.974 47.1755 139.796 47.9763 139.796 48.8815C139.796 49.7868 140.009 50.5875 140.399 51.2839C140.825 51.9802 141.356 52.5372 142.065 52.9202C142.775 53.3032 143.59 53.5121 144.512 53.5121C145.221 53.5121 145.859 53.3728 146.462 53.1291C147.065 52.8854 147.561 52.5024 147.986 52.015L147.596 51.632C147.242 52.0846 146.816 52.4328 146.285 52.6417C145.753 52.8854 145.15 52.9899 144.512 52.9899C143.732 52.9899 143.023 52.8158 142.385 52.4676C141.746 52.1194 141.25 51.632 140.895 51.0401C140.541 50.4135 140.364 49.7171 140.328 48.9512H148.518V48.7771C148.518 47.9067 148.341 47.1059 147.951 46.4096C147.561 45.7133 147.029 45.191 146.391 44.7732V44.8429ZM140.364 48.5334C140.364 47.837 140.576 47.1755 140.931 46.6185C141.25 46.0614 141.711 45.6088 142.278 45.2955C142.845 44.9821 143.484 44.808 144.157 44.808C144.831 44.808 145.469 44.9821 146.036 45.2955C146.604 45.6088 147.029 46.0614 147.384 46.6185C147.738 47.1755 147.915 47.837 147.986 48.5334H140.364Z" fill="white"/>
<path d="M144.476 53.826C143.519 53.826 142.668 53.6171 141.924 53.1993C141.179 52.7815 140.576 52.1896 140.151 51.4585C139.725 50.7273 139.513 49.8569 139.513 48.9169C139.513 47.9769 139.725 47.1413 140.115 46.3753C140.505 45.6442 141.073 45.0523 141.782 44.6345C142.491 44.2167 143.306 44.0078 144.157 44.0078C145.008 44.0078 145.824 44.2167 146.533 44.6345C147.242 45.0523 147.809 45.6094 148.199 46.3753C148.589 47.1065 148.802 47.942 148.802 48.8821V49.2999H140.612C140.647 49.9266 140.825 50.4836 141.108 51.0059C141.427 51.5629 141.924 52.0155 142.491 52.3289C143.058 52.6422 143.732 52.8163 144.476 52.8163C145.079 52.8163 145.646 52.7119 146.143 52.503C146.639 52.2941 147.064 51.9807 147.348 51.5629L147.525 51.3192L148.305 52.0852L148.164 52.2593C147.703 52.7815 147.171 53.1645 146.533 53.443C145.894 53.7215 145.221 53.8608 144.476 53.8608V53.826ZM144.122 44.5301C143.342 44.5301 142.633 44.7041 141.995 45.0871C141.356 45.4701 140.86 45.9923 140.505 46.619C140.151 47.2805 139.974 48.0465 139.974 48.9169C139.974 49.7873 140.151 50.5184 140.541 51.18C140.931 51.8415 141.463 52.3637 142.136 52.7467C142.81 53.1297 143.59 53.3038 144.441 53.3038C144.902 53.3038 145.327 53.2341 145.753 53.1297C145.327 53.2341 144.902 53.3038 144.441 53.3038C143.625 53.3038 142.881 53.1297 142.207 52.7467C141.534 52.3985 141.002 51.8763 140.612 51.2148C140.222 50.5533 140.045 49.8221 140.009 48.9865V48.708V48.4643C140.045 47.7332 140.257 47.0368 140.612 46.4449C140.966 45.8531 141.463 45.3656 142.065 45.0175C143.271 44.3212 144.902 44.3212 146.107 45.0175C146.71 45.3656 147.171 45.8531 147.561 46.4449C147.915 47.0716 148.128 47.7332 148.199 48.4643V48.708C148.199 47.9072 148.022 47.2109 147.667 46.5494C147.313 45.8879 146.816 45.4005 146.178 45.0175C145.54 44.6693 144.866 44.4604 144.086 44.4604L144.122 44.5301ZM147.561 52.0504C147.561 52.0504 147.49 52.12 147.49 52.1548L147.596 52.0852L147.561 52.0504ZM140.612 48.2554H147.632C147.561 47.6983 147.384 47.1761 147.1 46.7235C146.781 46.2012 146.355 45.7834 145.859 45.4701C144.831 44.8782 143.377 44.8782 142.349 45.4701C141.817 45.7486 141.392 46.1664 141.108 46.7235C140.825 47.1761 140.683 47.6983 140.612 48.2554Z" fill="white"/>
<path d="M155.857 44.251C154.935 44.251 154.155 44.4599 153.482 44.8777C152.808 45.2955 152.347 45.8525 152.028 46.5837V44.3554H151.461V53.5121H152.064V48.5682C152.064 47.4193 152.383 46.514 153.092 45.8525C153.765 45.191 154.687 44.8429 155.857 44.8429C156.885 44.8429 157.665 45.1214 158.233 45.7133C158.8 46.2703 159.084 47.1059 159.084 48.1852V53.5469H159.686V48.1504C159.686 46.9318 159.367 45.957 158.694 45.2955C158.02 44.634 157.098 44.2858 155.928 44.2858L155.857 44.251Z" fill="white"/>
<path d="M159.899 53.7567H158.765V48.1513C158.765 47.1416 158.516 46.3757 158.02 45.8534C157.524 45.3312 156.779 45.0875 155.822 45.0875C154.723 45.0875 153.872 45.4008 153.269 46.0275C152.631 46.6542 152.347 47.4898 152.347 48.5691V53.7915H151.213V44.1126H152.312V45.6445C152.596 45.2615 152.95 44.983 153.34 44.7045C154.049 44.2519 154.9 44.043 155.857 44.043C157.098 44.043 158.091 44.3911 158.8 45.1223C159.509 45.8534 159.899 46.8631 159.899 48.1513V53.7915V53.7567ZM159.296 53.2345H159.367V48.1165C159.367 46.9675 159.048 46.0623 158.446 45.4356C157.807 44.8089 156.992 44.5304 155.893 44.5304C155.397 44.5304 154.9 44.6 154.475 44.7393C154.9 44.6348 155.326 44.5652 155.822 44.5652C156.921 44.5652 157.772 44.8786 158.41 45.5053C159.013 46.1319 159.332 47.0372 159.332 48.1861V53.2693L159.296 53.2345ZM151.709 53.2345H151.78V48.5343C151.78 48.2209 151.78 47.9424 151.851 47.6639L151.78 47.8728V44.5652H151.745V53.1996L151.709 53.2345Z" fill="white"/>
<path d="M166.103 53.0603C165.501 53.0603 165.04 52.8862 164.721 52.5729C164.402 52.2595 164.26 51.7721 164.26 51.1454V44.8785H167.344V44.3563H164.26V42.3369H163.657V44.3563H161.884V44.8785H163.657V51.2499C163.657 51.981 163.87 52.5381 164.26 52.9559C164.685 53.3737 165.252 53.5826 166.032 53.5826C166.387 53.5826 166.742 53.5129 167.061 53.4085C167.38 53.304 167.663 53.13 167.876 52.9559L167.557 52.5381C167.132 52.8862 166.635 53.0951 166.032 53.0951L166.103 53.0603Z" fill="white"/>
<path d="M166.068 53.8255C165.253 53.8255 164.579 53.5818 164.118 53.1292C163.657 52.6766 163.409 52.0151 163.409 51.2143V45.1214H161.636V44.077H163.409V42.0576H164.543V44.077H167.628V45.1214H164.543V51.1447C164.543 51.7017 164.685 52.1195 164.933 52.398C165.182 52.6766 165.572 52.8158 166.103 52.8158C166.635 52.8158 167.061 52.6766 167.451 52.3284L167.663 52.1195L168.266 52.9551L168.089 53.0944C167.841 53.3381 167.522 53.5122 167.167 53.6166C166.813 53.7211 166.423 53.7907 166.033 53.7907L166.068 53.8255ZM163.976 44.5992V51.2143C163.976 51.8758 164.153 52.398 164.508 52.7462C164.792 53.0247 165.182 53.1988 165.643 53.2684C165.182 53.1988 164.827 53.0247 164.543 52.7114C164.189 52.3284 164.012 51.8062 164.012 51.1098V42.5799H163.941V44.5992H163.976Z" fill="white"/>
<path d="M173.62 44.2513C172.911 44.2513 172.237 44.3557 171.599 44.5994C170.961 44.8432 170.393 45.1565 169.968 45.5743L170.287 45.9921C170.712 45.6091 171.173 45.3306 171.776 45.0869C172.343 44.878 172.982 44.7387 173.62 44.7387C174.577 44.7387 175.286 44.9824 175.782 45.435C176.279 45.9225 176.527 46.584 176.527 47.4892V48.3944H173.123C171.918 48.3944 171.067 48.6381 170.535 49.0907C170.003 49.5433 169.72 50.17 169.72 50.9012C169.72 51.6671 170.003 52.2938 170.606 52.7813C171.209 53.2687 172.024 53.4776 173.052 53.4776C173.868 53.4776 174.577 53.3035 175.18 52.9902C175.782 52.642 176.208 52.1894 176.527 51.5975V53.4428H177.094V47.4892C177.094 46.4099 176.811 45.6091 176.208 45.0172C175.605 44.4602 174.754 44.1816 173.655 44.1816L173.62 44.2513ZM176.492 50.8315C175.889 52.2938 174.754 53.025 173.088 53.025C172.237 53.025 171.528 52.8509 171.032 52.4679C170.535 52.0849 170.287 51.5627 170.287 50.9012C170.287 50.2745 170.5 49.7871 170.961 49.4389C171.422 49.0907 172.131 48.9167 173.088 48.9167H176.492V50.8315Z" fill="white"/>
<path d="M173.052 53.8257C171.953 53.8257 171.067 53.5819 170.429 53.0597C169.755 52.5375 169.436 51.8411 169.436 50.9707C169.436 50.1003 169.755 49.4736 170.322 48.9514C170.925 48.4291 171.847 48.1854 173.088 48.1854H176.208V47.5587C176.208 46.7231 175.995 46.0964 175.57 45.6787C175.144 45.2609 174.471 45.052 173.62 45.052C172.981 45.052 172.414 45.1564 171.847 45.3653C171.315 45.5742 170.854 45.8527 170.464 46.2009L170.251 46.4098L169.613 45.5742L169.791 45.4001C170.287 44.9475 170.854 44.5993 171.528 44.3556C172.201 44.1119 172.911 43.9727 173.655 43.9727C174.825 43.9727 175.747 44.286 176.421 44.9127C177.059 45.5394 177.378 46.4098 177.378 47.5587V53.756H176.279V52.5026C176.031 52.7812 175.711 53.0597 175.321 53.2686C174.683 53.6168 173.939 53.7908 173.052 53.7908V53.8257ZM176.775 53.2338H176.811V47.5587C176.811 46.5491 176.527 45.8179 175.995 45.2957C175.463 44.7734 174.648 44.5297 173.62 44.5297C172.946 44.5297 172.308 44.6342 171.67 44.8779C171.138 45.0868 170.677 45.3305 170.287 45.6438C170.677 45.3305 171.102 45.0868 171.634 44.8779C172.237 44.6342 172.911 44.5297 173.584 44.5297C174.612 44.5297 175.392 44.8082 175.924 45.2957C176.456 45.8179 176.74 46.5839 176.74 47.5587V50.5877V53.2338H176.775ZM170.961 49.1603C170.961 49.1603 170.748 49.2995 170.677 49.3692C170.181 49.787 169.968 50.3092 169.968 50.9707C169.968 51.6322 170.216 52.2241 170.748 52.6419C170.996 52.816 171.244 52.9901 171.563 53.0945C171.315 52.9901 171.067 52.8856 170.854 52.7115C170.287 52.2937 170.003 51.7019 170.003 50.9359C170.003 50.2396 170.251 49.6825 170.783 49.2647C170.819 49.2299 170.89 49.1951 170.961 49.1255V49.1603ZM173.088 49.1951C172.201 49.1951 171.528 49.3692 171.138 49.6825C170.748 49.9959 170.571 50.4137 170.571 50.9359C170.571 51.5278 170.783 51.9456 171.209 52.2937C171.67 52.6419 172.272 52.816 173.088 52.816C174.648 52.816 175.676 52.1545 176.243 50.8315V49.2299H173.123L173.088 49.1951Z" fill="white"/>
<path d="M181.562 40.3867H180.959V53.5124H181.562V40.3867Z" fill="white"/>
<path d="M181.845 53.7564H180.711V40.1084H181.845V53.7564ZM181.243 53.2341H181.314V40.6306H181.243V53.2341Z" fill="white"/>
<path d="M191.631 45.3303C192.234 44.9821 192.943 44.808 193.723 44.808C194.361 44.808 194.928 44.9125 195.46 45.1562C195.992 45.3999 196.417 45.7481 196.736 46.2007L197.197 45.8177C196.807 45.2955 196.311 44.9125 195.708 44.634C195.105 44.3554 194.432 44.251 193.723 44.251C192.836 44.251 192.056 44.4599 191.347 44.8429C190.638 45.2258 190.106 45.7829 189.681 46.4792C189.255 47.1755 189.078 47.9763 189.078 48.8815C189.078 49.7868 189.291 50.5875 189.681 51.2839C190.071 51.9802 190.638 52.5372 191.347 52.9202C192.056 53.3032 192.836 53.5121 193.723 53.5121C194.432 53.5121 195.07 53.3728 195.708 53.1291C196.311 52.8506 196.807 52.4676 197.197 51.9454L196.736 51.5972C196.417 52.0498 195.956 52.398 195.46 52.6417C194.928 52.8854 194.361 52.9899 193.723 52.9899C192.943 52.9899 192.269 52.8158 191.631 52.4676C191.028 52.1194 190.532 51.632 190.177 51.0053C189.823 50.3786 189.645 49.6823 189.645 48.8815C189.645 48.0808 189.823 47.3844 190.177 46.7577C190.532 46.1311 190.993 45.6436 191.631 45.2955V45.3303Z" fill="white"/>
<path d="M193.687 53.826C192.765 53.826 191.914 53.6171 191.17 53.1993C190.425 52.7815 189.822 52.1896 189.397 51.4585C188.972 50.7273 188.759 49.8569 188.759 48.9169C188.759 47.9769 188.972 47.1413 189.397 46.3753C189.822 45.6442 190.425 45.0523 191.17 44.6345C191.914 44.2167 192.765 44.0078 193.687 44.0078C194.431 44.0078 195.141 44.1471 195.779 44.4256C196.417 44.7041 196.949 45.1219 197.374 45.679L197.516 45.8879L196.665 46.5842L196.488 46.3405C196.169 45.9227 195.779 45.6094 195.318 45.3656C194.821 45.1567 194.29 45.0523 193.722 45.0523C193.013 45.0523 192.34 45.2264 191.772 45.5397C191.205 45.8531 190.744 46.3057 190.425 46.8976C190.106 47.4894 189.929 48.1509 189.929 48.9169C189.929 49.6829 190.106 50.3444 190.425 50.9362C190.744 51.5281 191.205 51.9807 191.772 52.2941C192.34 52.6074 193.013 52.7815 193.722 52.7815C194.29 52.7815 194.857 52.6771 195.318 52.4682C195.779 52.2593 196.204 51.9459 196.488 51.5281L196.665 51.3192L197.516 52.0155L197.374 52.2244C196.949 52.7815 196.417 53.1993 195.779 53.4778C195.141 53.7564 194.431 53.8956 193.687 53.8956V53.826ZM193.687 44.5301C192.836 44.5301 192.091 44.7041 191.453 45.0871C190.78 45.4701 190.283 45.9923 189.893 46.6538C189.503 47.3154 189.326 48.0813 189.326 48.9169C189.326 49.7525 189.503 50.5184 189.893 51.18C190.283 51.8415 190.78 52.3637 191.453 52.7467C192.127 53.1297 192.871 53.3038 193.687 53.3038C194.361 53.3038 194.963 53.1645 195.566 52.9208C196.027 52.7119 196.452 52.3985 196.771 52.0155C196.452 52.3637 196.027 52.6771 195.566 52.886C194.999 53.1297 194.396 53.2689 193.722 53.2689C192.907 53.2689 192.162 53.0949 191.524 52.7119C190.851 52.3289 190.354 51.8066 189.964 51.1451C189.61 50.4836 189.397 49.7177 189.397 48.8821C189.397 48.0465 189.574 47.2805 189.964 46.619C190.319 45.9575 190.851 45.4353 191.524 45.0871C192.162 44.7041 192.907 44.5301 193.722 44.5301C194.396 44.5301 194.999 44.6693 195.566 44.913C196.027 45.1219 196.452 45.4353 196.771 45.8183H196.807C196.488 45.4005 196.062 45.0871 195.601 44.8782C195.034 44.6345 194.396 44.4952 193.722 44.4952L193.687 44.5301Z" fill="white"/>
<path d="M200.424 40.3867H199.821V53.5124H200.424V40.3867Z" fill="white"/>
<path d="M200.707 53.7564H199.572V40.1084H200.707V53.7564ZM200.104 53.2341H200.175V40.6306H200.104V53.2341Z" fill="white"/>
<path d="M204.713 40.7695C204.713 40.7695 204.394 40.8392 204.288 40.9436C204.181 41.0481 204.11 41.1873 204.11 41.3614C204.11 41.5007 204.181 41.6399 204.288 41.7444C204.394 41.8488 204.536 41.9185 204.713 41.9185C204.89 41.9185 204.997 41.8488 205.139 41.7444C205.245 41.6399 205.316 41.5007 205.316 41.3266C205.316 41.1525 205.245 41.0481 205.139 40.9436C205.032 40.8392 204.89 40.7695 204.713 40.7695Z" fill="white"/>
<path d="M204.713 42.1976C204.5 42.1976 204.288 42.128 204.11 41.9539C203.933 41.8147 203.862 41.6058 203.862 41.362C203.862 41.1183 203.933 40.9094 204.11 40.7702C204.43 40.4568 204.961 40.4568 205.316 40.7702C205.493 40.9442 205.564 41.1531 205.564 41.362C205.564 41.5709 205.458 41.7798 205.316 41.9539C205.139 42.128 204.926 42.1976 204.713 42.1976ZM204.713 41.0487C204.713 41.0487 204.536 41.0487 204.465 41.1531C204.394 41.2228 204.359 41.2924 204.359 41.3969C204.359 41.4665 204.359 41.5361 204.465 41.6058C204.607 41.745 204.784 41.745 204.926 41.6058C204.997 41.5361 205.032 41.4665 205.032 41.3969C205.032 41.3272 205.032 41.2576 204.926 41.188C204.855 41.1183 204.784 41.0835 204.678 41.0835L204.713 41.0487Z" fill="white"/>
<path d="M205.032 44.3213H204.43V53.478H205.032V44.3213Z" fill="white"/>
<path d="M205.281 53.7561H204.146V44.0771H205.281V53.7561ZM204.678 53.2338H204.749V44.5994H204.678V53.2338Z" fill="white"/>
<path d="M213.435 44.251C212.513 44.251 211.733 44.4599 211.059 44.8777C210.386 45.2955 209.925 45.8525 209.606 46.5837V44.3554H209.039V53.5121H209.641V48.5682C209.641 47.4193 209.96 46.514 210.669 45.8525C211.343 45.191 212.265 44.8429 213.435 44.8429C214.463 44.8429 215.243 45.1214 215.81 45.7133C216.378 46.2703 216.661 47.1059 216.661 48.1852V53.5469H217.264V48.1504C217.264 46.9318 216.945 45.957 216.271 45.2955C215.598 44.634 214.676 44.2858 213.506 44.2858L213.435 44.251Z" fill="white"/>
<path d="M217.441 53.7567H216.307V48.1513C216.307 47.1416 216.058 46.3757 215.562 45.8534C215.066 45.3312 214.321 45.0875 213.364 45.0875C212.265 45.0875 211.414 45.4008 210.811 46.0275C210.173 46.6542 209.889 47.4898 209.889 48.5691V53.7915H208.755V44.1126H209.854V45.6445C210.138 45.2615 210.492 44.983 210.882 44.7045C211.591 44.2519 212.442 44.043 213.399 44.043C214.64 44.043 215.633 44.3911 216.342 45.1223C217.051 45.8534 217.441 46.8631 217.441 48.1513V53.7915V53.7567ZM216.838 53.2345H216.909V48.1165C216.909 46.9675 216.59 46.0623 215.988 45.4356C215.349 44.8089 214.534 44.5304 213.435 44.5304C212.938 44.5304 212.442 44.6 212.017 44.7393C212.442 44.6348 212.868 44.5652 213.364 44.5652C214.463 44.5652 215.314 44.8786 215.952 45.5053C216.555 46.1319 216.874 47.0372 216.874 48.1861V53.2693L216.838 53.2345ZM209.251 53.2345H209.322V48.5343C209.322 48.2209 209.322 47.9424 209.393 47.6639L209.322 47.8728V44.5652H209.287V53.1996L209.251 53.2345Z" fill="white"/>
<path d="M221.342 40.7695C221.342 40.7695 221.022 40.8392 220.916 40.9436C220.81 41.0481 220.739 41.1873 220.739 41.3614C220.739 41.5007 220.81 41.6399 220.916 41.7444C221.022 41.8488 221.164 41.9185 221.342 41.9185C221.519 41.9185 221.625 41.8488 221.767 41.7444C221.873 41.6399 221.944 41.5007 221.944 41.3266C221.944 41.1525 221.873 41.0481 221.767 40.9436C221.661 40.8392 221.519 40.7695 221.342 40.7695Z" fill="white"/>
<path d="M221.341 42.1976C221.128 42.1976 220.916 42.128 220.738 41.9539C220.561 41.8147 220.49 41.6058 220.49 41.362C220.49 41.1183 220.561 40.9094 220.738 40.7702C221.058 40.4568 221.589 40.4568 221.944 40.7702C222.121 40.9442 222.192 41.1531 222.192 41.362C222.192 41.5709 222.086 41.7798 221.944 41.9539C221.767 42.128 221.554 42.1976 221.341 42.1976ZM221.341 41.0487C221.341 41.0487 221.164 41.0487 221.093 41.1531C221.022 41.2228 220.987 41.2924 220.987 41.3969C220.987 41.4665 220.987 41.5361 221.093 41.6058C221.235 41.745 221.412 41.745 221.554 41.6058C221.625 41.5361 221.66 41.4665 221.66 41.3969C221.66 41.3272 221.66 41.2576 221.554 41.188C221.483 41.1183 221.412 41.0835 221.306 41.0835L221.341 41.0487Z" fill="white"/>
<path d="M221.66 44.3213H221.058V53.478H221.66V44.3213Z" fill="white"/>
<path d="M221.944 53.7561H220.81V44.0771H221.944V53.7561ZM221.341 53.2338H221.412V44.5994H221.341V53.2338Z" fill="white"/>
<path d="M227.156 45.3303C227.758 44.9821 228.468 44.808 229.248 44.808C229.886 44.808 230.453 44.9125 230.985 45.1562C231.517 45.3999 231.942 45.7481 232.261 46.2007L232.722 45.8177C232.332 45.2955 231.836 44.9125 231.233 44.634C230.63 44.3554 229.957 44.251 229.248 44.251C228.361 44.251 227.581 44.4599 226.872 44.8429C226.163 45.2258 225.631 45.7829 225.206 46.4792C224.816 47.1755 224.603 47.9763 224.603 48.8815C224.603 49.7868 224.816 50.5875 225.206 51.2839C225.596 51.9802 226.163 52.5372 226.872 52.9202C227.581 53.3032 228.361 53.5121 229.248 53.5121C229.957 53.5121 230.595 53.3728 231.233 53.1291C231.836 52.8506 232.332 52.4676 232.722 51.9454L232.261 51.5972C231.942 52.0498 231.481 52.398 230.985 52.6417C230.453 52.8854 229.886 52.9899 229.248 52.9899C228.468 52.9899 227.794 52.8158 227.156 52.4676C226.553 52.1194 226.057 51.632 225.702 51.0053C225.348 50.3786 225.17 49.6823 225.17 48.8815C225.17 48.0808 225.348 47.3844 225.702 46.7577C226.057 46.1311 226.518 45.6436 227.156 45.2955V45.3303Z" fill="white"/>
<path d="M229.247 53.826C228.326 53.826 227.475 53.6171 226.73 53.1993C225.986 52.7815 225.383 52.1896 224.958 51.4585C224.532 50.7273 224.319 49.8569 224.319 48.9169C224.319 47.9769 224.532 47.1413 224.958 46.3753C225.383 45.6442 225.986 45.0523 226.73 44.6345C227.475 44.2167 228.326 44.0078 229.247 44.0078C229.992 44.0078 230.701 44.1471 231.339 44.4256C231.977 44.7041 232.509 45.1219 232.935 45.679L233.077 45.8879L232.226 46.5842L232.048 46.3405C231.729 45.9227 231.339 45.6094 230.878 45.3656C230.382 45.1567 229.85 45.0523 229.283 45.0523C228.574 45.0523 227.9 45.2264 227.333 45.5397C226.766 45.8531 226.305 46.3057 225.986 46.8976C225.667 47.4894 225.489 48.1509 225.489 48.9169C225.489 49.6829 225.667 50.3444 225.986 50.9362C226.305 51.5281 226.766 51.9807 227.333 52.2941C227.9 52.6074 228.574 52.7815 229.283 52.7815C229.886 52.7815 230.417 52.6771 230.878 52.4682C231.339 52.2593 231.765 51.9459 232.048 51.5281L232.226 51.3192L233.077 52.0155L232.935 52.2244C232.509 52.7815 231.977 53.1993 231.339 53.4778C230.701 53.7564 229.992 53.8956 229.247 53.8956V53.826ZM229.247 44.5301C228.397 44.5301 227.652 44.7041 227.014 45.0871C226.34 45.4701 225.844 45.9923 225.454 46.6538C225.064 47.3154 224.887 48.0813 224.887 48.9169C224.887 49.7525 225.064 50.5184 225.454 51.18C225.844 51.8415 226.34 52.3637 227.014 52.7467C227.687 53.1297 228.432 53.3038 229.247 53.3038C229.921 53.3038 230.524 53.1645 231.127 52.9208C231.587 52.7119 232.013 52.3985 232.332 52.0155C232.013 52.3637 231.587 52.6771 231.127 52.886C230.559 53.1297 229.957 53.2689 229.283 53.2689C228.467 53.2689 227.723 53.0949 227.085 52.7119C226.411 52.3289 225.915 51.8066 225.525 51.1451C225.17 50.4836 224.958 49.7177 224.958 48.8821C224.958 48.0465 225.135 47.2805 225.525 46.619C225.879 45.9575 226.411 45.4353 227.085 45.0871C227.723 44.7041 228.467 44.5301 229.283 44.5301C229.957 44.5301 230.559 44.6693 231.127 44.913C231.587 45.1219 232.013 45.4353 232.332 45.8183H232.367C232.048 45.4005 231.623 45.0871 231.162 44.8782C230.595 44.6345 229.957 44.4952 229.283 44.4952L229.247 44.5301Z" fill="white"/>
<path d="M68.2497 6.89402C70.0224 5.91916 72.0078 5.43173 74.206 5.43173C77.5387 5.43173 80.3041 6.58067 82.5378 8.87854L85.3032 6.26732C83.9559 4.77022 82.325 3.6561 80.4105 2.89015C78.496 2.12419 76.3687 1.74121 74.0642 1.74121C71.086 1.74121 68.4269 2.40272 66.0161 3.69092C63.6052 4.97912 61.7261 6.75475 60.3788 9.01781C59.0315 11.2809 58.3579 13.8224 58.3579 16.6426C58.3579 19.4627 59.0315 22.0043 60.3788 24.2673C61.7261 26.5304 63.6052 28.306 65.9806 29.5942C68.356 30.8824 71.0506 31.5439 73.9933 31.5439C76.2978 31.5439 78.4251 31.1609 80.3751 30.395C82.2896 29.629 83.9559 28.4801 85.3032 26.983L82.5378 24.3718C80.2687 26.7045 77.5033 27.8534 74.206 27.8534C72.0078 27.8534 70.0224 27.366 68.2497 26.3911C66.477 25.4163 65.0942 24.0932 64.0661 22.3872C63.0733 20.6812 62.577 18.7664 62.577 16.6774C62.577 14.5884 63.0733 12.6735 64.0661 10.9675C65.0588 9.26152 66.4415 7.9385 68.2497 6.96365V6.89402Z" fill="white"/>
<path d="M176.279 17.9306C177.414 16.3638 177.981 14.4489 177.981 12.1859C177.981 9.0176 176.882 6.54564 174.684 4.7352C172.485 2.92475 169.472 2.01953 165.643 2.01953H125.721V14.5534H116.858V2.05435H112.639V14.5534H95.6204V2.05435H91.4014V31.1607H95.6204V18.2091H112.639V31.1607H116.858V18.1395H125.721V31.1607H147.206V27.5398H129.94V18.1395H140.896V14.623H129.94V5.67524H154.049V31.1607H158.268V22.3174H165.572C166.033 22.3174 166.635 22.3174 167.451 22.2478L173.833 31.1955H178.442L171.422 21.447C173.514 20.7159 175.109 19.5669 176.244 18.0002L176.279 17.9306ZM165.501 18.7661H158.304V5.67524H165.501C168.195 5.67524 170.216 6.2323 171.635 7.34642C173.053 8.46054 173.762 10.0969 173.762 12.1859C173.762 14.2749 173.053 15.9112 171.635 17.0602C170.216 18.2091 168.16 18.7661 165.501 18.7661Z" fill="white"/>
<path d="M223.504 25.9377L212.832 2.05371H210.528H208.259H184.823V31.1601H206.309V27.5392H189.042V18.1388H200.14V14.6224H189.042V5.6746H209.889L221.306 31.1601H225.489L238.466 2.05371H234.247L223.504 25.9377Z" fill="white"/>
<path d="M254.704 15.1446L267.361 2.05371H262.539L246.479 18.3129V2.05371H242.224V31.1601H246.479V23.6398L251.903 18.2085L263.213 31.1601H268.177L254.704 15.1446Z" fill="white"/>
<path d="M299.767 8.32092C298.313 5.88378 296.221 3.93407 293.633 2.5066C288.457 -0.278696 281.401 -0.24388 276.26 2.5066C273.672 3.89925 271.58 5.84896 270.127 8.32092C268.638 10.7929 267.893 13.5782 267.893 16.5724C267.893 19.5666 268.638 22.3867 270.127 24.8238C271.616 27.2958 273.672 29.2455 276.296 30.6381C278.884 32.0308 281.827 32.7271 285.018 32.7271C288.208 32.7271 291.116 32.0308 293.704 30.6381C296.292 29.2455 298.384 27.2958 299.837 24.8238C301.291 22.3867 302.036 19.6014 302.036 16.5375C302.036 13.4737 301.291 10.7232 299.837 8.25128L299.767 8.32092ZM297.497 9.64393C298.738 11.6981 299.341 14.0308 299.341 16.6072C299.341 18.2784 299.057 19.8451 298.526 21.3074L290.832 14.4138C289.946 13.613 289.91 12.29 290.761 11.4196L295.299 6.96308C296.15 7.76386 296.859 8.66908 297.462 9.64393H297.497ZM284.982 3.02885C287.712 3.02885 290.194 3.62072 292.392 4.80448C292.782 5.01337 293.066 5.32672 293.456 5.57043L289.662 9.29577C288.705 10.2358 287.074 10.2706 286.081 9.40022C284.202 7.76386 281.401 5.2919 279.806 3.89925C281.401 3.37701 283.138 3.06366 284.982 3.06366V3.02885ZM277.288 4.97856L284.663 11.5936C285.443 12.29 285.478 13.4389 284.734 14.17L280.657 18.1739C279.77 19.0443 278.423 19.288 277.253 18.8006L270.588 16.1198C270.659 13.7523 271.261 11.5936 272.431 9.67875C273.601 7.69422 275.268 6.16231 277.324 4.97856H277.288ZM273.14 24.4757C272.892 24.1623 272.609 23.8838 272.396 23.5356C271.509 22.0733 270.942 20.437 270.694 18.6962L274.842 20.3673C275.693 20.7155 275.941 21.7252 275.303 22.3519L273.176 24.4408L273.14 24.4757ZM285.833 30.1159C285.443 29.0366 285.018 27.9921 284.379 26.9824C283.848 26.1468 282.997 25.2764 281.827 25.5201C281.614 25.555 281.366 25.6594 281.188 25.7987C280.444 26.2861 280.089 27.0172 279.841 27.7484C279.664 28.2358 279.593 28.7232 279.487 29.2107C278.813 28.967 278.175 28.7232 277.572 28.3751C276.686 27.8876 275.906 27.261 275.161 26.6343L278.565 23.2919C279.203 22.7 280.16 22.4911 280.976 22.8393L293.243 27.7832C292.959 27.9573 292.711 28.2358 292.392 28.4099C290.442 29.4544 288.138 30.0114 285.833 30.1159ZM295.441 26.1817L283.068 21.2029C282.217 20.8548 282.004 19.8799 282.642 19.2532L286.223 15.7368C286.897 15.0753 288.031 15.0405 288.74 15.702L297.533 23.6052C296.966 24.5453 296.257 25.4157 295.477 26.1817H295.441Z" fill="white"/>
</g>
<defs>
<clipPath id="clip0_41_318">
<rect width="302" height="54" fill="white"/>
</clipPath>
</defs>
</svg>
