<svg width="30" height="50" viewBox="0 0 30 50" fill="none" xmlns="http://www.w3.org/2000/svg">
            <path d="M28.5677 17.8278C28.4908 17.5409 28.3421 17.2792 28.1361 17.0683C28.0084 16.9368 27.8545 16.8346 27.6848 16.7686L20.3079 24.7631C20.124 24.9489 19.978 25.17 19.8784 25.4135C19.7788 25.6571 19.7275 25.9183 19.7275 26.1821C19.7275 26.446 19.7788 26.7072 19.8784 26.9508C19.978 27.1943 20.124 27.4154 20.3079 27.6012L27.7633 35.0561C27.8728 34.9066 27.9528 34.7369 27.9988 34.5564C29.335 31.1648 30.0017 27.5381 29.9607 23.8837C29.7057 21.821 29.2389 19.7912 28.5677 17.8278Z" fill="currentColor"/>
            <path d="M19.3271 22.8045L26.0958 15.4095C26.1677 15.3321 26.2155 15.2347 26.2332 15.1297C26.2813 14.9376 26.2904 14.7374 26.2601 14.5416C26.2297 14.3457 26.1605 14.1582 26.0566 13.9905C25.8513 13.6662 25.5583 13.4094 25.213 13.251C23.8579 12.5127 22.345 12.1264 20.8084 12.1264C19.2717 12.1264 17.7588 12.5127 16.4038 13.251C15.259 14.0161 14.0662 14.7037 12.833 15.3096C11.9761 15.5798 11.0808 15.7014 10.1843 15.6693C10.0801 15.67 9.97838 15.7021 9.89192 15.7614C9.80547 15.8208 9.73812 15.9048 9.69832 16.0029C9.65853 16.1011 9.64804 16.209 9.66819 16.3132C9.68833 16.4174 9.73821 16.5133 9.81158 16.5887L16.2468 22.9044C16.4554 23.104 16.7006 23.2598 16.9684 23.3629C17.2361 23.4659 17.5212 23.5142 17.8073 23.5049C18.0934 23.4956 18.3748 23.429 18.6356 23.3088C18.8964 23.1886 19.1314 23.0172 19.3271 22.8045Z" fill="currentColor"/>
            <path d="M1.13969 30.9389C0.996108 30.9964 0.869829 31.0913 0.773442 31.214C0.677055 31.3368 0.613926 31.4831 0.590346 31.6384C0.52327 31.9343 0.52327 32.2419 0.590346 32.5378C1.12839 34.5739 1.78351 36.576 2.5523 38.5337C2.66461 38.8549 2.86144 39.1383 3.12127 39.3532L6.88823 35.236C7.01711 35.0975 7.11106 34.9292 7.16203 34.7456C7.21301 34.562 7.21948 34.3685 7.18089 34.1818C7.1423 33.9951 7.05981 33.8207 6.94049 33.6736C6.82116 33.5265 6.66858 33.4111 6.49584 33.3373L1.15931 30.9389H1.13969Z" fill="currentColor"/>
            <path d="M24.7222 41.4917L11.8714 35.7556C11.5274 35.6008 11.1449 35.558 10.7761 35.6331C10.4074 35.7083 10.0704 35.8976 9.81134 36.1753L4.71025 41.7315C4.64271 42.3668 4.74436 43.0089 5.00454 43.5903C5.53873 44.9521 6.25866 46.2305 7.14308 47.3877C7.30729 47.6568 7.55631 47.8611 7.84938 47.9673C8.63417 48.1672 9.0658 47.4676 9.32085 46.8281C10.1253 44.8294 10.1841 42.571 10.8316 40.4924C11.0016 39.7525 11.409 39.0914 11.9891 38.6137C12.1572 38.5018 12.3431 38.4206 12.5385 38.3738C13.5587 38.114 14.2454 38.9534 14.7162 39.7529C16.1018 42.6674 17.0919 45.7603 17.6592 48.9466C17.7243 49.2384 17.8748 49.5033 18.0908 49.7061C18.6598 50.2258 19.1699 49.9459 19.6015 49.7061C21.8524 48.1536 23.6004 45.9556 24.6241 43.3904C24.8716 42.8902 24.9409 42.318 24.8203 41.7715C24.8024 41.6735 24.7693 41.5791 24.7222 41.4917Z" fill="currentColor"/>
            <path d="M25.0164 39.2732C25.7423 39.2732 26.5075 39.0933 26.684 38.3339C26.7133 38.1552 26.7133 37.9729 26.684 37.7942C26.6197 37.4503 26.5004 37.1195 26.3309 36.8149L18.483 28.9603C18.3424 28.814 18.1745 28.6978 17.9892 28.6185C17.8039 28.5392 17.6049 28.4984 17.404 28.4984C17.203 28.4984 17.004 28.5392 16.8187 28.6185C16.6334 28.6978 16.4655 28.814 16.3249 28.9603L13.2839 32.338C13.1647 32.4786 13.0804 32.6464 13.0382 32.8271C12.996 33.0079 12.9971 33.1963 13.0413 33.3766C13.0855 33.5568 13.1717 33.7236 13.2924 33.8628C13.4131 34.0021 13.565 34.1097 13.7351 34.1767L25.0164 39.2732Z" fill="currentColor"/>
            <path d="M11.5968 31.2587L15.0891 27.4613C15.3984 27.1336 15.5712 26.6967 15.5712 26.2421C15.5712 25.7875 15.3984 25.3506 15.0891 25.0229L4.51414 14.5101C4.1589 14.6086 3.8212 14.7638 3.51354 14.9698C2.47534 15.6162 1.64907 16.5623 1.13957 17.6879C0.37606 19.5276 -0.0111414 21.5066 0.00163216 23.504C0.00163216 24.49 0.00163216 25.4693 0.00163216 26.442C-0.0108769 26.9609 0.0485681 27.4789 0.178208 27.9809L8.67349 31.9782C9.17366 32.1831 9.72414 32.224 10.2482 32.095C10.7722 31.966 11.2437 31.6736 11.5968 31.2587Z" fill="currentColor"/>
            <path d="M11.4204 0.339761H14.5595C15.287 0.325683 16.007 0.49021 16.6588 0.819434C17.247 1.11718 17.7377 1.58234 18.0715 2.15852C18.4234 2.76229 18.6002 3.45524 18.5816 4.15716C18.5992 4.85895 18.4224 5.55161 18.0715 6.15579C17.7377 6.73198 17.247 7.19714 16.6588 7.49488C16.0087 7.83102 15.2886 8.00242 14.5595 7.99454H11.4204V0.339761ZM14.5007 6.97524C15.0512 6.98842 15.5966 6.86495 16.0899 6.61548C16.5259 6.38704 16.8923 6.04147 17.1493 5.61616C17.3984 5.15762 17.5268 4.64123 17.5221 4.11718C17.5271 3.59945 17.3985 3.08946 17.1493 2.63819C16.898 2.20809 16.5301 1.86107 16.0899 1.63888C15.5966 1.3894 15.0512 1.26594 14.5007 1.27912H12.5387V6.97524H14.5007Z" fill="currentColor"/>
            <path d="M1.96334 7.4949C1.37683 7.17644 0.888007 6.69922 0.55073 6.11584C0.211781 5.50664 0.0358737 4.81743 0.0406209 4.1172C0.0358737 3.41697 0.211781 2.72776 0.55073 2.11856C0.885061 1.53784 1.37512 1.06636 1.96334 0.75949C2.56612 0.428686 3.24062 0.256909 3.9253 0.259831C4.46799 0.245014 5.00816 0.340123 5.51449 0.53964C5.99295 0.731111 6.41755 1.04007 6.75052 1.43903L6.06384 2.11856C5.79143 1.82133 5.45951 1.58721 5.09055 1.43204C4.72159 1.27686 4.3242 1.20427 3.9253 1.21918C3.42404 1.22029 2.93126 1.35094 2.49307 1.59892C2.05068 1.83651 1.68337 2.19684 1.43361 2.63821C1.18977 3.09519 1.06204 3.60706 1.06204 4.12719C1.06204 4.64732 1.18977 5.15919 1.43361 5.61618C1.68337 6.05755 2.05068 6.41788 2.49307 6.65547C2.93126 6.90344 3.42404 7.0341 3.9253 7.03521C4.32714 7.05039 4.72753 6.97801 5.09971 6.82291C5.47189 6.66781 5.80728 6.43356 6.08346 6.13582L6.77014 6.81536C6.43084 7.20238 6.00762 7.50349 5.53411 7.69476C5.02176 7.89918 4.47551 8.00097 3.9253 7.99455C3.24032 8.00006 2.56519 7.82813 1.96334 7.4949Z" fill="currentColor"/>
            <path d="M25.1538 7.49489C24.5713 7.17074 24.0838 6.69483 23.7412 6.11583C23.4022 5.50663 23.2263 4.81742 23.2311 4.11719C23.2263 3.41696 23.4022 2.72775 23.7412 2.11855C24.0838 1.53954 24.5713 1.06364 25.1538 0.739493C25.7102 0.45676 26.3176 0.293161 26.9385 0.258786C27.5593 0.224412 28.1806 0.319991 28.7638 0.539629C29.2422 0.7311 29.6668 1.04005 29.9998 1.43902L29.3131 2.11855C29.0467 1.82442 28.7214 1.59193 28.3593 1.43678C27.9971 1.28162 27.6065 1.20742 27.2138 1.21917C26.6927 1.20991 26.1783 1.3409 25.7227 1.59891C25.2822 1.83208 24.9201 2.19398 24.6829 2.6382C24.4233 3.08602 24.2877 3.59713 24.2905 4.11719C24.2852 4.64389 24.4208 5.16212 24.6829 5.61617C24.9201 6.06038 25.2822 6.42228 25.7227 6.65546C26.1783 6.91346 26.6927 7.04445 27.2138 7.0352C27.6062 7.04437 27.996 6.969 28.3578 6.814C28.7196 6.65901 29.0451 6.4279 29.3131 6.13581L29.9998 6.81535C29.6605 7.20237 29.2373 7.50348 28.7638 7.69475C28.2578 7.89761 27.7183 7.99939 27.1746 7.99454C26.47 8.00765 25.774 7.83556 25.1538 7.49489Z" fill="currentColor"/>
            <path d="M9.22283 8.25437C9.15518 8.25437 9.09031 8.227 9.04248 8.17827C8.99464 8.12954 8.96777 8.06346 8.96777 7.99455V0.239838C8.97273 0.174449 9.00177 0.113387 9.04907 0.0689041C9.09638 0.0244207 9.15845 -0.000193155 9.22283 1.14159e-06C9.28527 1.14159e-06 9.34515 0.0252695 9.38931 0.0702476C9.43346 0.115226 9.45826 0.176229 9.45826 0.239838V7.99455C9.46098 8.02768 9.45691 8.06103 9.4463 8.09248C9.4357 8.12392 9.41878 8.15278 9.39665 8.17721C9.37451 8.20165 9.34762 8.22112 9.3177 8.2344C9.28778 8.24769 9.25547 8.25449 9.22283 8.25437Z" fill="currentColor"/>
            <path d="M20.7787 8.25437C20.7461 8.25449 20.7138 8.24769 20.6839 8.2344C20.6539 8.22112 20.6271 8.20165 20.6049 8.17721C20.5828 8.15278 20.5659 8.12392 20.5553 8.09248C20.5447 8.06103 20.5406 8.02768 20.5433 7.99455V0.239838C20.5433 0.176229 20.5681 0.115226 20.6123 0.0702476C20.6564 0.0252695 20.7163 1.14159e-06 20.7787 1.14159e-06C20.8431 -0.000193155 20.9052 0.0244207 20.9525 0.0689041C20.9998 0.113387 21.0288 0.174449 21.0338 0.239838V7.99455C21.0338 8.06346 21.0069 8.12954 20.9591 8.17827C20.9113 8.227 20.8464 8.25437 20.7787 8.25437Z" fill="currentColor"/>
            </svg>