<svg width="320" height="46" viewBox="0 0 320 46" fill="none" xmlns="http://www.w3.org/2000/svg">
<path d="M297.63 45.9972C293.643 46.0611 289.707 45.0443 286.192 43.0425C282.838 41.1135 280.037 38.2546 278.088 34.7693C276.133 31.1988 275.124 27.1313 275.17 22.9997C275.124 18.8682 276.133 14.8007 278.088 11.2301C280.024 7.73393 282.828 4.87173 286.192 2.95696C289.72 1.0141 293.634 6.10352e-05 297.607 6.10352e-05C301.58 6.10352e-05 305.495 1.0141 309.022 2.95696C312.364 4.88712 315.149 7.74679 317.08 11.2301C319.046 14.7959 320.055 18.8667 319.997 22.9997C320.051 27.1322 319.042 31.2017 317.08 34.7693C315.149 38.2527 312.364 41.1123 309.022 43.0425C305.522 45.0382 301.602 46.0549 297.63 45.9972ZM297.63 3.69563C294.226 3.63694 290.863 4.50127 287.859 6.20714C285.058 7.80943 282.721 10.1929 281.098 13.1015C279.465 16.0915 278.618 19.493 278.644 22.9505C278.604 26.4098 279.452 29.8152 281.098 32.7995C282.707 35.7325 285.047 38.1356 287.859 39.7431C290.878 41.3815 294.218 42.2358 297.607 42.2358C300.996 42.2358 304.337 41.3815 307.355 39.7431C310.152 38.1522 312.477 35.765 314.07 32.8488C315.709 29.8616 316.557 26.4582 316.524 22.9997C316.562 19.5407 315.713 16.136 314.07 13.1507C312.477 10.2345 310.152 7.84731 307.355 6.25638C304.37 4.53949 301.024 3.65827 297.63 3.69563Z" fill="white"/>
<path d="M13.0159 9.16184C15.4108 7.75949 18.1085 7.04653 20.8421 7.09354C22.8882 7.04144 24.9213 7.45371 26.8058 8.30286C28.6903 9.15201 30.383 10.4185 31.771 12.0181L35.3831 8.27543C33.6189 6.15706 31.4151 4.50474 28.9462 3.4494C26.2936 2.33584 23.4621 1.78382 20.6105 1.82431C16.9281 1.77678 13.2948 2.72575 10.0521 4.58204C6.97577 6.32309 4.42367 8.95167 2.689 12.1658C0.868925 15.4435 -0.0608238 19.1938 0.00308638 22.9997C-0.0535969 26.8047 0.875644 30.5529 2.689 33.8337C4.44874 37.0269 6.99456 39.649 10.0521 41.4174C13.2628 43.3314 16.8835 44.3321 20.5642 44.3229C23.4304 44.3585 26.2762 43.8068 28.9462 42.6978C31.4219 41.6093 33.6256 39.9234 35.3831 37.7733L31.771 34.0799C30.3793 35.6744 28.6859 36.9375 26.8023 37.7863C24.9187 38.6351 22.8874 39.0502 20.8421 39.0044C18.1085 39.0514 15.4108 38.3385 13.0159 36.9361C10.7107 35.5759 8.80361 33.565 7.50513 31.1252C6.19347 28.6468 5.52239 25.8433 5.56016 22.9997C5.50589 20.1229 6.1775 17.2831 7.50513 14.7758C8.83028 12.4085 10.7349 10.4682 13.0159 9.16184Z" fill="white"/>
<path d="M116.701 43.6827V38.5612H94.0101V25.1666H103.133H108.412V20.1436H103.133H94.0101V7.4383H125.685V2.3168H88.453V20.1436H76.7832V2.3168H71.2261V20.0943H48.9052V2.3168H43.3481V43.6827H48.9052V25.2158H71.2261V43.6827H76.7832V25.1666H88.453V43.6827H116.701Z" fill="white"/>
<path d="M154.86 24.871C156.387 22.4787 157.164 19.6353 157.083 16.7456C157.182 14.7518 156.849 12.7605 156.11 10.9249C155.372 9.08939 154.247 7.45852 152.823 6.15788C149.396 3.40824 145.16 2.04648 140.875 2.31676H125.686V43.6827H131.243V31.0759H140.875H143.329L151.711 43.7812H157.778L148.516 29.894C151.088 28.9971 153.315 27.2338 154.86 24.871ZM140.69 26.0529H131.428V7.43826H140.69C143.558 7.22184 146.407 8.07511 148.747 9.85127C149.686 10.689 150.426 11.7492 150.908 12.9467C151.391 14.1441 151.603 15.4453 151.526 16.7456C151.592 18.0445 151.375 19.342 150.893 20.5376C150.412 21.7332 149.677 22.7948 148.747 23.6399C146.407 25.4161 143.558 26.2693 140.69 26.0529Z" fill="white"/>
<path d="M171.67 25.1666H186.258V20.1436H171.67V7.4383H201.169L199.826 2.3168H166.113V43.6827H194.315V38.5612H171.67V25.1666Z" fill="white"/>
<path d="M216.914 36.296L202.883 2.3168H196.909L213.997 43.6827H219.507L236.549 2.3168H230.992L216.914 36.296Z" fill="white"/>
<path d="M274.522 2.3168H268.178L247.061 25.4128V2.3168H241.504V43.6827H247.061V32.9965L254.193 25.3143L269.058 43.6827H275.587L257.897 20.9315L274.522 2.3168Z" fill="white"/>
<path d="M296.797 37.7733C296.102 36.5914 294.991 35.311 293.463 35.705C293.145 35.7638 292.844 35.8985 292.583 36.0989C291.736 36.7964 291.12 37.7622 290.823 38.8567C290.464 40.1357 290.171 41.4344 289.943 42.747C292.395 43.7621 295 44.296 297.631 44.3229H299.344C298.769 42.0303 297.913 39.8282 296.797 37.7733Z" fill="white"/>
<path d="M316.803 30.9774L305.364 19.7003C305.092 19.4286 304.876 19.1005 304.727 18.7364C304.579 18.3722 304.503 17.9796 304.503 17.5828C304.503 17.186 304.579 16.7934 304.727 16.4292C304.876 16.065 305.092 15.7369 305.364 15.4652L312.542 7.78298C311.773 7.06039 310.952 6.40184 310.088 5.81317L303.79 12.5598C303.153 13.1654 302.329 13.5003 301.474 13.5003C300.62 13.5003 299.796 13.1654 299.159 12.5598L289.341 3.4494C288.549 3.77658 287.775 4.15483 287.026 4.58204C286.702 4.58204 286.517 5.02525 286.239 5.17298L297.214 15.8592C297.447 16.0938 297.632 16.3764 297.758 16.6897C297.885 17.0029 297.95 17.3403 297.95 17.6813C297.95 18.0222 297.885 18.3596 297.758 18.6728C297.632 18.9861 297.447 19.2687 297.214 19.5033L291.75 25.2158C291.148 25.8365 290.386 26.2524 289.561 26.4103C288.736 26.5682 287.886 26.4609 287.119 26.1022L276.653 21.5716C276.653 22.0148 276.653 22.5073 276.653 22.9997C276.653 23.4922 276.653 24.4771 276.653 25.2158L283.923 28.3675C284.175 28.4742 284.399 28.6446 284.575 28.8641C284.751 29.0835 284.874 29.3453 284.933 29.6266C284.992 29.908 284.986 30.2005 284.915 30.4788C284.844 30.7571 284.71 31.0128 284.525 31.2237L280.496 35.508C281.245 36.6309 282.098 37.6704 283.043 38.6104L288.786 32.5533C289.2 32.1242 289.721 31.8309 290.288 31.7087C290.855 31.5864 291.442 31.6403 291.981 31.8639L310.273 39.7431C311.272 38.9653 312.202 38.0917 313.052 37.1331H312.403L295.084 29.5493C294.836 29.4508 294.616 29.2877 294.444 29.075C294.271 28.8623 294.152 28.6068 294.096 28.3322C294.041 28.0575 294.052 27.7724 294.127 27.5032C294.202 27.234 294.34 26.9893 294.528 26.7916L299.159 21.8671C299.6 21.4128 300.189 21.1588 300.803 21.1588C301.417 21.1588 302.006 21.4128 302.447 21.8671L314.487 33.5382C314.643 33.8415 314.782 34.1539 314.904 34.4738C315.09 34.1831 315.291 33.9036 315.506 33.6367C316.062 32.6011 316.527 31.5131 316.895 30.3865C316.923 30.5889 316.89 30.7955 316.803 30.9774Z" fill="white"/>
</svg>
