<svg width="50" height="50" viewBox="0 0 50 50" fill="none" xmlns="http://www.w3.org/2000/svg">
<g clip-path="url(#clip0_463_1691)">
<path d="M5.95995 28.2969C5.7534 28.3947 5.59321 28.5693 5.51352 28.7835C5.43382 28.9977 5.44091 29.2345 5.53329 29.4436L7.49662 33.6669C7.54645 33.7716 7.61662 33.8652 7.70304 33.9425C7.78946 34.0198 7.89039 34.0791 7.99995 34.1169C8.09478 34.1526 8.19531 34.1706 8.29662 34.1702C8.42283 34.1703 8.54767 34.1442 8.66329 34.0936L23.5066 27.1536L22.1733 41.2236C22.1602 41.36 22.1796 41.4977 22.23 41.6251C22.2805 41.7526 22.3604 41.8663 22.4633 41.9569C23.1134 42.4968 23.9252 42.8042 24.77 42.8302C25.0026 42.8298 25.2344 42.8006 25.46 42.7436C26.6666 42.4102 27.6 41.3536 28.24 39.5169L34.0833 22.2069L45.6666 16.8069C49.0733 15.2169 50.83 11.9936 49.6666 9.47357C49.3336 8.82192 48.8441 8.26307 48.242 7.84712C47.6399 7.43117 46.944 7.1711 46.2166 7.09024C44.5887 6.84515 42.9248 7.10212 41.4466 7.8269L28.0833 14.0902L13.72 8.47024C11.91 7.80357 10.4766 7.80357 9.47329 8.53357C9.0566 8.87491 8.72281 9.30636 8.49705 9.79541C8.27129 10.2845 8.15945 10.8184 8.16995 11.3569C8.17521 11.4932 8.21195 11.6264 8.2773 11.7461C8.34265 11.8658 8.43483 11.9688 8.54662 12.0469L18.2133 18.7136L12.6666 21.3336L3.38995 18.9569C3.20459 18.9118 3.00959 18.9285 2.83453 19.0043C2.65948 19.0801 2.51392 19.2109 2.41995 19.3769L0.106619 23.5436C0.0470467 23.6528 0.0115003 23.7735 0.00236001 23.8976C-0.00678025 24.0217 0.0106967 24.1463 0.0536204 24.263C0.0965441 24.3798 0.163924 24.4861 0.251247 24.5747C0.33857 24.6633 0.443822 24.7323 0.559952 24.7769L7.43662 27.6169L5.95995 28.2969ZM9.95995 10.9202C10.0103 10.5505 10.1969 10.2128 10.4833 9.97357C11 9.6169 11.8933 9.6669 13.1066 10.1236L25.9 15.1236L20.0633 17.8402L9.95995 10.9202ZM2.09662 23.5369L3.61995 20.8369L12.5566 23.0569C12.7497 23.1037 12.953 23.0837 13.1333 23.0002L42.19 9.43357C43.3448 8.86347 44.6452 8.6566 45.92 8.84024C46.3607 8.88036 46.7851 9.02691 47.1567 9.26729C47.5283 9.50767 47.836 9.83469 48.0533 10.2202C48.7866 11.7936 47.3433 14.0902 44.9066 15.2202L34.84 19.9402L35.45 18.1302C35.4945 18.0176 35.5156 17.8972 35.5119 17.7761C35.5083 17.6551 35.48 17.5361 35.4288 17.4264C35.3776 17.3167 35.3045 17.2186 35.2141 17.1381C35.1236 17.0576 35.0177 16.9964 34.9028 16.9582C34.7879 16.9201 34.6664 16.9058 34.5458 16.9162C34.4251 16.9266 34.3079 16.9615 34.2012 17.0188C34.0946 17.0761 34.0007 17.1546 33.9254 17.2494C33.8501 17.3442 33.7949 17.4534 33.7633 17.5702L26.5733 38.9769C26.1466 40.1902 25.6133 40.9169 25.0166 41.0736C24.6496 41.1442 24.2695 41.0727 23.9533 40.8736L25.7 22.5402C25.7109 22.4255 25.6991 22.3098 25.6654 22.1997C25.6316 22.0895 25.5764 21.9871 25.5031 21.8983C25.4297 21.8095 25.3396 21.7359 25.2378 21.6819C25.136 21.6279 25.0246 21.5945 24.91 21.5836C24.7953 21.5726 24.6795 21.5844 24.5694 21.6182C24.4593 21.6519 24.3568 21.7071 24.268 21.7804C24.1792 21.8538 24.1057 21.9439 24.0517 22.0457C23.9977 22.1475 23.9642 22.2589 23.9533 22.3736L23.6666 25.1602L8.66662 32.1602L7.43329 29.5369L9.89995 28.3836C10.0543 28.3144 10.1853 28.2021 10.2772 28.0601C10.3692 27.9182 10.4181 27.7527 10.4181 27.5836C10.4181 27.4145 10.3692 27.2489 10.2772 27.107C10.1853 26.9651 10.0543 26.8527 9.89995 26.7836L2.09662 23.5369Z" fill="#4B99F1"/>
</g>
<defs>
<clipPath id="clip0_463_1691">
<rect width="50" height="50" fill="white"/>
</clipPath>
</defs>
</svg>
