<svg width="50" height="50" viewBox="0 0 50 50" fill="none" xmlns="http://www.w3.org/2000/svg">
<g clip-path="url(#clip0_463_1694)">
<path d="M10.1029 27.2085C9.28239 27.2065 8.47976 27.4481 7.79663 27.9026C7.11349 28.3571 6.58058 29.004 6.26538 29.7616C5.95018 30.5191 5.86685 31.3532 6.02596 32.1581C6.18507 32.963 6.57945 33.7026 7.15917 34.2833C7.73889 34.8639 8.47787 35.2595 9.28255 35.4199C10.0872 35.5803 10.9214 35.4983 11.6794 35.1843C12.4375 34.8703 13.0853 34.3385 13.5409 33.656C13.9965 32.9736 14.2393 32.1714 14.2387 31.3509C14.2378 30.2537 13.802 29.2016 13.0268 28.4251C12.2515 27.6486 11.2001 27.2111 10.1029 27.2085ZM10.1029 33.7416C9.63202 33.7416 9.17172 33.602 8.7802 33.3404C8.38868 33.0788 8.08352 32.7069 7.90333 32.2719C7.72313 31.8369 7.67598 31.3582 7.76785 30.8964C7.85971 30.4345 8.08646 30.0103 8.41942 29.6773C8.75238 29.3444 9.1766 29.1176 9.63843 29.0258C10.1003 28.9339 10.579 28.9811 11.014 29.1613C11.449 29.3415 11.8208 29.6466 12.0825 30.0381C12.3441 30.4296 12.4837 30.8899 12.4837 31.3608C12.4837 31.9922 12.2329 32.5978 11.7864 33.0443C11.3399 33.4908 10.7343 33.7416 10.1029 33.7416Z" fill="#4B99F1"/>
<path d="M47.139 18.9139H43.6092L39.3344 10.8245C39.2601 10.6834 39.1486 10.5653 39.012 10.483C38.8755 10.4008 38.719 10.3574 38.5595 10.3576H30.8774L29.9966 6.67881C29.9463 6.48445 29.8314 6.31298 29.6707 6.19262C29.51 6.07225 29.3132 6.01017 29.1125 6.01656H22.0595C21.8618 6.01452 21.6691 6.07857 21.5119 6.19855C21.3547 6.31852 21.2421 6.48755 21.192 6.67881L20.2946 10.3576H11.4172C11.2572 10.3571 11.1002 10.4004 10.963 10.4827C10.8259 10.565 10.7138 10.6832 10.639 10.8245L6.36417 18.9139H2.83437C2.06483 18.9501 1.3388 19.2813 0.807004 19.8387C0.275212 20.3961 -0.0214844 21.1369 -0.0214844 21.9073C-0.0214844 22.6777 0.275212 23.4185 0.807004 23.9759C1.3388 24.5333 2.06483 24.8645 2.83437 24.9007H3.2251L1.4602 28.2384C1.39078 28.3665 1.35437 28.5099 1.35424 28.6556V38.7815C1.35904 38.9236 1.39885 39.0624 1.47013 39.1854C1.39696 39.3839 1.35778 39.5932 1.35424 39.8046V43.904C1.35416 44.4033 1.55021 44.8826 1.90014 45.2387C2.25007 45.5948 2.72589 45.7993 3.2251 45.8079H11.2218C11.4719 45.8084 11.7197 45.7594 11.9509 45.6639C12.1821 45.5684 12.3922 45.4282 12.5691 45.2513C12.746 45.0744 12.8862 44.8643 12.9817 44.6331C13.0772 44.4019 13.1262 44.1541 13.1258 43.904V39.6589H36.8642V43.9007C36.8642 44.4056 37.0648 44.8899 37.4218 45.247C37.7789 45.604 38.2632 45.8046 38.7681 45.8046H46.7748C47.0251 45.8051 47.273 45.7561 47.5044 45.6607C47.7358 45.5652 47.9461 45.425 48.1232 45.2481C48.3004 45.0713 48.4409 44.8613 48.5368 44.6301C48.6327 44.3988 48.6821 44.151 48.6821 43.9007V39.8013C48.6785 39.5899 48.6393 39.3805 48.5662 39.1821C48.6332 39.0589 48.6706 38.9217 48.6754 38.7815V28.6623C48.6716 28.5181 48.6354 28.3766 48.5695 28.2483L46.8112 24.9073H47.1655C47.93 24.8632 48.6487 24.5285 49.1744 23.9717C49.7001 23.4148 49.9929 22.678 49.9929 21.9123C49.9929 21.1465 49.7001 20.4097 49.1744 19.8528C48.6487 19.296 47.93 18.9613 47.1655 18.9172L47.139 18.9139ZM22.8079 7.78146H28.437L29.0463 10.3742H22.1854L22.8079 7.78146ZM11.9436 12.1291H38.0297L43.8675 23.1424H6.11914L11.9436 12.1291ZM2.80126 23.1424C2.49408 23.1148 2.20836 22.9732 2.00028 22.7456C1.7922 22.5179 1.67681 22.2207 1.67681 21.9123C1.67681 21.6038 1.7922 21.3066 2.00028 21.0789C2.20836 20.8513 2.49408 20.7098 2.80126 20.6821H5.45026L4.12576 23.1424H2.80126ZM11.3642 39.8013V43.9007C11.3642 43.9194 11.3605 43.9379 11.3533 43.9552C11.3462 43.9724 11.3357 43.9881 11.3225 44.0013C11.3092 44.0146 11.2935 44.0251 11.2763 44.0322C11.259 44.0394 11.2405 44.043 11.2218 44.043H3.2251C3.2064 44.043 3.18788 44.0394 3.17061 44.0322C3.15333 44.0251 3.13764 44.0146 3.12442 44.0013C3.11119 43.9881 3.10071 43.9724 3.09355 43.9552C3.0864 43.9379 3.08271 43.9194 3.08271 43.9007V39.8013C3.08271 39.7636 3.09771 39.7273 3.12442 39.7006C3.15112 39.6739 3.18733 39.6589 3.2251 39.6589H11.2218C11.2412 39.658 11.2607 39.661 11.2789 39.6678C11.2971 39.6747 11.3137 39.6852 11.3277 39.6987C11.3419 39.7116 11.3531 39.7275 11.3606 39.7453C11.368 39.763 11.3715 39.7821 11.3708 39.8013H11.3642ZM46.8907 43.9007C46.8907 43.9194 46.887 43.9379 46.8798 43.9552C46.8727 43.9724 46.8622 43.9881 46.849 44.0013C46.8357 44.0146 46.82 44.0251 46.8028 44.0322C46.7855 44.0394 46.767 44.043 46.7483 44.043H38.7417C38.7042 44.0422 38.6684 44.0269 38.6419 44.0004C38.6154 43.9739 38.6001 43.9382 38.5993 43.9007V39.8013C38.5993 39.7826 38.603 39.7641 38.6101 39.7468C38.6173 39.7296 38.6278 39.7139 38.641 39.7006C38.6542 39.6874 38.6699 39.6769 38.6872 39.6698C38.7044 39.6626 38.723 39.6589 38.7417 39.6589H46.7483C46.786 39.6589 46.8223 39.6739 46.849 39.7006C46.8757 39.7273 46.8907 39.7636 46.8907 39.8013V43.9007ZM46.8907 37.894H3.08271V28.8841L5.18205 24.9106H44.7913L46.8907 28.8841V37.894ZM47.1291 23.1424H45.8576L44.5529 20.6755H47.139C47.4462 20.7031 47.7319 20.8447 47.94 21.0723C48.1481 21.3 48.2635 21.5972 48.2635 21.9056C48.2635 22.214 48.1481 22.5113 47.94 22.7389C47.7319 22.9666 47.4462 23.1081 47.139 23.1358L47.1291 23.1424Z" fill="#4B99F1"/>
<path d="M39.8708 27.209C39.0507 27.209 38.2491 27.4522 37.5672 27.9079C36.8854 28.3636 36.354 29.0112 36.0404 29.769C35.7267 30.5267 35.6448 31.3604 35.805 32.1647C35.9652 32.969 36.3604 33.7076 36.9405 34.2873C37.5206 34.867 38.2596 35.2615 39.064 35.4211C39.8684 35.5807 40.7021 35.4981 41.4596 35.1839C42.217 34.8696 42.8643 34.3377 43.3194 33.6555C43.7746 32.9733 44.0171 32.1714 44.0165 31.3514C44.0165 30.8071 43.9092 30.2682 43.7009 29.7654C43.4925 29.2626 43.1871 28.8058 42.802 28.4211C42.417 28.0364 41.96 27.7313 41.457 27.5234C40.9541 27.3154 40.4151 27.2086 39.8708 27.209ZM39.8708 33.7421C39.3999 33.7421 38.9396 33.6025 38.5481 33.3409C38.1566 33.0793 37.8514 32.7074 37.6712 32.2724C37.491 31.8374 37.4439 31.3587 37.5357 30.8968C37.6276 30.435 37.8544 30.0108 38.1873 29.6778C38.5203 29.3449 38.9445 29.1181 39.4063 29.0263C39.8682 28.9344 40.3469 28.9815 40.7819 29.1617C41.2169 29.3419 41.5887 29.6471 41.8504 30.0386C42.112 30.4301 42.2516 30.8904 42.2516 31.3613C42.2516 31.9927 42.0008 32.5983 41.5543 33.0448C41.1078 33.4913 40.5022 33.7421 39.8708 33.7421Z" fill="#4B99F1"/>
<path d="M31.7319 30.4704H18.2485C18.0238 30.4842 17.8128 30.5831 17.6586 30.7471C17.5043 30.9111 17.4185 31.1277 17.4185 31.3529C17.4185 31.578 17.5043 31.7946 17.6586 31.9586C17.8128 32.1226 18.0238 32.2215 18.2485 32.2353H31.7319C31.8524 32.2427 31.973 32.2253 32.0865 32.1843C32.2 32.1433 32.3039 32.0795 32.3917 31.9969C32.4796 31.9142 32.5497 31.8144 32.5975 31.7036C32.6454 31.5929 32.6701 31.4735 32.6701 31.3529C32.6701 31.2322 32.6454 31.1128 32.5975 31.0021C32.5497 30.8913 32.4796 30.7915 32.3917 30.7089C32.3039 30.6262 32.2 30.5624 32.0865 30.5214C31.973 30.4804 31.8524 30.463 31.7319 30.4704Z" fill="#4B99F1"/>
</g>
<defs>
<clipPath id="clip0_463_1694">
<rect width="50" height="50" fill="white"/>
</clipPath>
</defs>
</svg>
